<?xml version="1.0" encoding="utf-8" standalone="no"?>
<!DOCTYPE svg PUBLIC "-//W3C//DTD SVG 1.1//EN"
  "http://www.w3.org/Graphics/SVG/1.1/DTD/svg11.dtd">
<svg xmlns:xlink="http://www.w3.org/1999/xlink" width="216pt" height="162pt" viewBox="0 0 216 162" xmlns="http://www.w3.org/2000/svg" version="1.1">
 <metadata>
  <rdf:RDF xmlns:dc="http://purl.org/dc/elements/1.1/" xmlns:cc="http://creativecommons.org/ns#" xmlns:rdf="http://www.w3.org/1999/02/22-rdf-syntax-ns#">
   <cc:Work>
    <dc:type rdf:resource="http://purl.org/dc/dcmitype/StillImage"/>
    <dc:date>2025-05-17T19:05:23.169410</dc:date>
    <dc:format>image/svg+xml</dc:format>
    <dc:creator>
     <cc:Agent>
      <dc:title>Matplotlib v3.10.0, https://matplotlib.org/</dc:title>
     </cc:Agent>
    </dc:creator>
   </cc:Work>
  </rdf:RDF>
 </metadata>
 <defs>
  <style type="text/css">*{stroke-linejoin: round; stroke-linecap: butt}</style>
 </defs>
 <g id="figure_1">
  <g id="patch_1">
   <path d="M 0 162 
L 216 162 
L 216 0 
L 0 0 
z
" style="fill: #ffffff"/>
  </g>
  <g id="axes_1">
   <g id="patch_2">
    <path d="M 10.8 113.555646 
L 205.2 113.555646 
L 205.2 10.8 
L 10.8 10.8 
z
" style="fill: #ffffff"/>
   </g>
   <g id="matplotlib.axis_1">
    <g id="xtick_1">
     <g id="text_1">
      <!-- 0.00 -->
      <g style="fill: #262626" transform="translate(14.899632 140.949311) rotate(-45) scale(0.08 -0.08)">
       <defs>
        <path id="DejaVuSans-30" d="M 2034 4250 
Q 1547 4250 1301 3770 
Q 1056 3291 1056 2328 
Q 1056 1369 1301 889 
Q 1547 409 2034 409 
Q 2525 409 2770 889 
Q 3016 1369 3016 2328 
Q 3016 3291 2770 3770 
Q 2525 4250 2034 4250 
z
M 2034 4750 
Q 2819 4750 3233 4129 
Q 3647 3509 3647 2328 
Q 3647 1150 3233 529 
Q 2819 -91 2034 -91 
Q 1250 -91 836 529 
Q 422 1150 422 2328 
Q 422 3509 836 4129 
Q 1250 4750 2034 4750 
z
" transform="scale(0.015625)"/>
        <path id="DejaVuSans-2e" d="M 684 794 
L 1344 794 
L 1344 0 
L 684 0 
L 684 794 
z
" transform="scale(0.015625)"/>
       </defs>
       <use xlink:href="#DejaVuSans-30"/>
       <use xlink:href="#DejaVuSans-2e" transform="translate(63.623047 0)"/>
       <use xlink:href="#DejaVuSans-30" transform="translate(95.410156 0)"/>
       <use xlink:href="#DejaVuSans-30" transform="translate(159.033203 0)"/>
      </g>
     </g>
    </g>
    <g id="xtick_2">
     <g id="text_2">
      <!-- 0.25 -->
      <g style="fill: #262626" transform="translate(51.578922 140.949311) rotate(-45) scale(0.08 -0.08)">
       <defs>
        <path id="DejaVuSans-32" d="M 1228 531 
L 3431 531 
L 3431 0 
L 469 0 
L 469 531 
Q 828 903 1448 1529 
Q 2069 2156 2228 2338 
Q 2531 2678 2651 2914 
Q 2772 3150 2772 3378 
Q 2772 3750 2511 3984 
Q 2250 4219 1831 4219 
Q 1534 4219 1204 4116 
Q 875 4013 500 3803 
L 500 4441 
Q 881 4594 1212 4672 
Q 1544 4750 1819 4750 
Q 2544 4750 2975 4387 
Q 3406 4025 3406 3419 
Q 3406 3131 3298 2873 
Q 3191 2616 2906 2266 
Q 2828 2175 2409 1742 
Q 1991 1309 1228 531 
z
" transform="scale(0.015625)"/>
        <path id="DejaVuSans-35" d="M 691 4666 
L 3169 4666 
L 3169 4134 
L 1269 4134 
L 1269 2991 
Q 1406 3038 1543 3061 
Q 1681 3084 1819 3084 
Q 2600 3084 3056 2656 
Q 3513 2228 3513 1497 
Q 3513 744 3044 326 
Q 2575 -91 1722 -91 
Q 1428 -91 1123 -41 
Q 819 9 494 109 
L 494 744 
Q 775 591 1075 516 
Q 1375 441 1709 441 
Q 2250 441 2565 725 
Q 2881 1009 2881 1497 
Q 2881 1984 2565 2268 
Q 2250 2553 1709 2553 
Q 1456 2553 1204 2497 
Q 953 2441 691 2322 
L 691 4666 
z
" transform="scale(0.015625)"/>
       </defs>
       <use xlink:href="#DejaVuSans-30"/>
       <use xlink:href="#DejaVuSans-2e" transform="translate(63.623047 0)"/>
       <use xlink:href="#DejaVuSans-32" transform="translate(95.410156 0)"/>
       <use xlink:href="#DejaVuSans-35" transform="translate(159.033203 0)"/>
      </g>
     </g>
    </g>
    <g id="xtick_3">
     <g id="text_3">
      <!-- 0.50 -->
      <g style="fill: #262626" transform="translate(88.258211 140.949311) rotate(-45) scale(0.08 -0.08)">
       <use xlink:href="#DejaVuSans-30"/>
       <use xlink:href="#DejaVuSans-2e" transform="translate(63.623047 0)"/>
       <use xlink:href="#DejaVuSans-35" transform="translate(95.410156 0)"/>
       <use xlink:href="#DejaVuSans-30" transform="translate(159.033203 0)"/>
      </g>
     </g>
    </g>
    <g id="xtick_4">
     <g id="text_4">
      <!-- 0.75 -->
      <g style="fill: #262626" transform="translate(124.937501 140.949311) rotate(-45) scale(0.08 -0.08)">
       <defs>
        <path id="DejaVuSans-37" d="M 525 4666 
L 3525 4666 
L 3525 4397 
L 1831 0 
L 1172 0 
L 2766 4134 
L 525 4134 
L 525 4666 
z
" transform="scale(0.015625)"/>
       </defs>
       <use xlink:href="#DejaVuSans-30"/>
       <use xlink:href="#DejaVuSans-2e" transform="translate(63.623047 0)"/>
       <use xlink:href="#DejaVuSans-37" transform="translate(95.410156 0)"/>
       <use xlink:href="#DejaVuSans-35" transform="translate(159.033203 0)"/>
      </g>
     </g>
    </g>
    <g id="xtick_5">
     <g id="text_5">
      <!-- 1.00 -->
      <g style="fill: #262626" transform="translate(161.61679 140.949311) rotate(-45) scale(0.08 -0.08)">
       <defs>
        <path id="DejaVuSans-31" d="M 794 531 
L 1825 531 
L 1825 4091 
L 703 3866 
L 703 4441 
L 1819 4666 
L 2450 4666 
L 2450 531 
L 3481 531 
L 3481 0 
L 794 0 
L 794 531 
z
" transform="scale(0.015625)"/>
       </defs>
       <use xlink:href="#DejaVuSans-31"/>
       <use xlink:href="#DejaVuSans-2e" transform="translate(63.623047 0)"/>
       <use xlink:href="#DejaVuSans-30" transform="translate(95.410156 0)"/>
       <use xlink:href="#DejaVuSans-30" transform="translate(159.033203 0)"/>
      </g>
     </g>
    </g>
    <g id="xtick_6">
     <g id="text_6">
      <!-- 1.25 -->
      <g style="fill: #262626" transform="translate(198.29608 140.949311) rotate(-45) scale(0.08 -0.08)">
       <use xlink:href="#DejaVuSans-31"/>
       <use xlink:href="#DejaVuSans-2e" transform="translate(63.623047 0)"/>
       <use xlink:href="#DejaVuSans-32" transform="translate(95.410156 0)"/>
       <use xlink:href="#DejaVuSans-35" transform="translate(159.033203 0)"/>
      </g>
     </g>
    </g>
    <g id="text_7">
     <!-- 1e6 -->
     <g style="fill: #262626" transform="translate(186.321875 152.724197) scale(0.1 -0.1)">
      <defs>
       <path id="DejaVuSans-65" d="M 3597 1894 
L 3597 1613 
L 953 1613 
Q 991 1019 1311 708 
Q 1631 397 2203 397 
Q 2534 397 2845 478 
Q 3156 559 3463 722 
L 3463 178 
Q 3153 47 2828 -22 
Q 2503 -91 2169 -91 
Q 1331 -91 842 396 
Q 353 884 353 1716 
Q 353 2575 817 3079 
Q 1281 3584 2069 3584 
Q 2775 3584 3186 3129 
Q 3597 2675 3597 1894 
z
M 3022 2063 
Q 3016 2534 2758 2815 
Q 2500 3097 2075 3097 
Q 1594 3097 1305 2825 
Q 1016 2553 972 2059 
L 3022 2063 
z
" transform="scale(0.015625)"/>
       <path id="DejaVuSans-36" d="M 2113 2584 
Q 1688 2584 1439 2293 
Q 1191 2003 1191 1497 
Q 1191 994 1439 701 
Q 1688 409 2113 409 
Q 2538 409 2786 701 
Q 3034 994 3034 1497 
Q 3034 2003 2786 2293 
Q 2538 2584 2113 2584 
z
M 3366 4563 
L 3366 3988 
Q 3128 4100 2886 4159 
Q 2644 4219 2406 4219 
Q 1781 4219 1451 3797 
Q 1122 3375 1075 2522 
Q 1259 2794 1537 2939 
Q 1816 3084 2150 3084 
Q 2853 3084 3261 2657 
Q 3669 2231 3669 1497 
Q 3669 778 3244 343 
Q 2819 -91 2113 -91 
Q 1303 -91 875 529 
Q 447 1150 447 2328 
Q 447 3434 972 4092 
Q 1497 4750 2381 4750 
Q 2619 4750 2861 4703 
Q 3103 4656 3366 4563 
z
" transform="scale(0.015625)"/>
      </defs>
      <use xlink:href="#DejaVuSans-31"/>
      <use xlink:href="#DejaVuSans-65" transform="translate(63.623047 0)"/>
      <use xlink:href="#DejaVuSans-36" transform="translate(125.146484 0)"/>
     </g>
    </g>
   </g>
   <g id="patch_3">
    <path d="M 19.636364 113.555646 
L 23.170909 113.555646 
L 23.170909 80.103463 
L 19.636364 80.103463 
z
" clip-path="url(#p1ef79d18d1)" style="fill: #0d6efd; stroke: #ffffff; stroke-width: 0.3; stroke-linejoin: miter"/>
   </g>
   <g id="patch_4">
    <path d="M 23.170909 113.555646 
L 26.705455 113.555646 
L 26.705455 113.555646 
L 23.170909 113.555646 
z
" clip-path="url(#p1ef79d18d1)" style="fill: #0d6efd; stroke: #ffffff; stroke-width: 0.3; stroke-linejoin: miter"/>
   </g>
   <g id="patch_5">
    <path d="M 26.705455 113.555646 
L 30.24 113.555646 
L 30.24 113.555646 
L 26.705455 113.555646 
z
" clip-path="url(#p1ef79d18d1)" style="fill: #0d6efd; stroke: #ffffff; stroke-width: 0.3; stroke-linejoin: miter"/>
   </g>
   <g id="patch_6">
    <path d="M 30.24 113.555646 
L 33.774545 113.555646 
L 33.774545 113.555646 
L 30.24 113.555646 
z
" clip-path="url(#p1ef79d18d1)" style="fill: #0d6efd; stroke: #ffffff; stroke-width: 0.3; stroke-linejoin: miter"/>
   </g>
   <g id="patch_7">
    <path d="M 33.774545 113.555646 
L 37.309091 113.555646 
L 37.309091 113.555646 
L 33.774545 113.555646 
z
" clip-path="url(#p1ef79d18d1)" style="fill: #0d6efd; stroke: #ffffff; stroke-width: 0.3; stroke-linejoin: miter"/>
   </g>
   <g id="patch_8">
    <path d="M 37.309091 113.555646 
L 40.843636 113.555646 
L 40.843636 113.555646 
L 37.309091 113.555646 
z
" clip-path="url(#p1ef79d18d1)" style="fill: #0d6efd; stroke: #ffffff; stroke-width: 0.3; stroke-linejoin: miter"/>
   </g>
   <g id="patch_9">
    <path d="M 40.843636 113.555646 
L 44.378182 113.555646 
L 44.378182 113.555646 
L 40.843636 113.555646 
z
" clip-path="url(#p1ef79d18d1)" style="fill: #0d6efd; stroke: #ffffff; stroke-width: 0.3; stroke-linejoin: miter"/>
   </g>
   <g id="patch_10">
    <path d="M 44.378182 113.555646 
L 47.912727 113.555646 
L 47.912727 113.555646 
L 44.378182 113.555646 
z
" clip-path="url(#p1ef79d18d1)" style="fill: #0d6efd; stroke: #ffffff; stroke-width: 0.3; stroke-linejoin: miter"/>
   </g>
   <g id="patch_11">
    <path d="M 47.912727 113.555646 
L 51.447273 113.555646 
L 51.447273 113.555646 
L 47.912727 113.555646 
z
" clip-path="url(#p1ef79d18d1)" style="fill: #0d6efd; stroke: #ffffff; stroke-width: 0.3; stroke-linejoin: miter"/>
   </g>
   <g id="patch_12">
    <path d="M 51.447273 113.555646 
L 54.981818 113.555646 
L 54.981818 113.555646 
L 51.447273 113.555646 
z
" clip-path="url(#p1ef79d18d1)" style="fill: #0d6efd; stroke: #ffffff; stroke-width: 0.3; stroke-linejoin: miter"/>
   </g>
   <g id="patch_13">
    <path d="M 54.981818 113.555646 
L 58.516364 113.555646 
L 58.516364 113.555646 
L 54.981818 113.555646 
z
" clip-path="url(#p1ef79d18d1)" style="fill: #0d6efd; stroke: #ffffff; stroke-width: 0.3; stroke-linejoin: miter"/>
   </g>
   <g id="patch_14">
    <path d="M 58.516364 113.555646 
L 62.050909 113.555646 
L 62.050909 113.555646 
L 58.516364 113.555646 
z
" clip-path="url(#p1ef79d18d1)" style="fill: #0d6efd; stroke: #ffffff; stroke-width: 0.3; stroke-linejoin: miter"/>
   </g>
   <g id="patch_15">
    <path d="M 62.050909 113.555646 
L 65.585455 113.555646 
L 65.585455 113.555646 
L 62.050909 113.555646 
z
" clip-path="url(#p1ef79d18d1)" style="fill: #0d6efd; stroke: #ffffff; stroke-width: 0.3; stroke-linejoin: miter"/>
   </g>
   <g id="patch_16">
    <path d="M 65.585455 113.555646 
L 69.12 113.555646 
L 69.12 113.555646 
L 65.585455 113.555646 
z
" clip-path="url(#p1ef79d18d1)" style="fill: #0d6efd; stroke: #ffffff; stroke-width: 0.3; stroke-linejoin: miter"/>
   </g>
   <g id="patch_17">
    <path d="M 69.12 113.555646 
L 72.654545 113.555646 
L 72.654545 113.555646 
L 69.12 113.555646 
z
" clip-path="url(#p1ef79d18d1)" style="fill: #0d6efd; stroke: #ffffff; stroke-width: 0.3; stroke-linejoin: miter"/>
   </g>
   <g id="patch_18">
    <path d="M 72.654545 113.555646 
L 76.189091 113.555646 
L 76.189091 113.555646 
L 72.654545 113.555646 
z
" clip-path="url(#p1ef79d18d1)" style="fill: #0d6efd; stroke: #ffffff; stroke-width: 0.3; stroke-linejoin: miter"/>
   </g>
   <g id="patch_19">
    <path d="M 76.189091 113.555646 
L 79.723636 113.555646 
L 79.723636 113.555646 
L 76.189091 113.555646 
z
" clip-path="url(#p1ef79d18d1)" style="fill: #0d6efd; stroke: #ffffff; stroke-width: 0.3; stroke-linejoin: miter"/>
   </g>
   <g id="patch_20">
    <path d="M 79.723636 113.555646 
L 83.258182 113.555646 
L 83.258182 113.555646 
L 79.723636 113.555646 
z
" clip-path="url(#p1ef79d18d1)" style="fill: #0d6efd; stroke: #ffffff; stroke-width: 0.3; stroke-linejoin: miter"/>
   </g>
   <g id="patch_21">
    <path d="M 83.258182 113.555646 
L 86.792727 113.555646 
L 86.792727 113.555646 
L 83.258182 113.555646 
z
" clip-path="url(#p1ef79d18d1)" style="fill: #0d6efd; stroke: #ffffff; stroke-width: 0.3; stroke-linejoin: miter"/>
   </g>
   <g id="patch_22">
    <path d="M 86.792727 113.555646 
L 90.327273 113.555646 
L 90.327273 113.555646 
L 86.792727 113.555646 
z
" clip-path="url(#p1ef79d18d1)" style="fill: #0d6efd; stroke: #ffffff; stroke-width: 0.3; stroke-linejoin: miter"/>
   </g>
   <g id="patch_23">
    <path d="M 90.327273 113.555646 
L 93.861818 113.555646 
L 93.861818 113.555646 
L 90.327273 113.555646 
z
" clip-path="url(#p1ef79d18d1)" style="fill: #0d6efd; stroke: #ffffff; stroke-width: 0.3; stroke-linejoin: miter"/>
   </g>
   <g id="patch_24">
    <path d="M 93.861818 113.555646 
L 97.396364 113.555646 
L 97.396364 113.555646 
L 93.861818 113.555646 
z
" clip-path="url(#p1ef79d18d1)" style="fill: #0d6efd; stroke: #ffffff; stroke-width: 0.3; stroke-linejoin: miter"/>
   </g>
   <g id="patch_25">
    <path d="M 97.396364 113.555646 
L 100.930909 113.555646 
L 100.930909 113.555646 
L 97.396364 113.555646 
z
" clip-path="url(#p1ef79d18d1)" style="fill: #0d6efd; stroke: #ffffff; stroke-width: 0.3; stroke-linejoin: miter"/>
   </g>
   <g id="patch_26">
    <path d="M 100.930909 113.555646 
L 104.465455 113.555646 
L 104.465455 113.555646 
L 100.930909 113.555646 
z
" clip-path="url(#p1ef79d18d1)" style="fill: #0d6efd; stroke: #ffffff; stroke-width: 0.3; stroke-linejoin: miter"/>
   </g>
   <g id="patch_27">
    <path d="M 104.465455 113.555646 
L 108 113.555646 
L 108 113.555646 
L 104.465455 113.555646 
z
" clip-path="url(#p1ef79d18d1)" style="fill: #0d6efd; stroke: #ffffff; stroke-width: 0.3; stroke-linejoin: miter"/>
   </g>
   <g id="patch_28">
    <path d="M 108 113.555646 
L 111.534545 113.555646 
L 111.534545 113.555646 
L 108 113.555646 
z
" clip-path="url(#p1ef79d18d1)" style="fill: #0d6efd; stroke: #ffffff; stroke-width: 0.3; stroke-linejoin: miter"/>
   </g>
   <g id="patch_29">
    <path d="M 111.534545 113.555646 
L 115.069091 113.555646 
L 115.069091 113.555646 
L 111.534545 113.555646 
z
" clip-path="url(#p1ef79d18d1)" style="fill: #0d6efd; stroke: #ffffff; stroke-width: 0.3; stroke-linejoin: miter"/>
   </g>
   <g id="patch_30">
    <path d="M 115.069091 113.555646 
L 118.603636 113.555646 
L 118.603636 113.555646 
L 115.069091 113.555646 
z
" clip-path="url(#p1ef79d18d1)" style="fill: #0d6efd; stroke: #ffffff; stroke-width: 0.3; stroke-linejoin: miter"/>
   </g>
   <g id="patch_31">
    <path d="M 118.603636 113.555646 
L 122.138182 113.555646 
L 122.138182 113.555646 
L 118.603636 113.555646 
z
" clip-path="url(#p1ef79d18d1)" style="fill: #0d6efd; stroke: #ffffff; stroke-width: 0.3; stroke-linejoin: miter"/>
   </g>
   <g id="patch_32">
    <path d="M 122.138182 113.555646 
L 125.672727 113.555646 
L 125.672727 113.555646 
L 122.138182 113.555646 
z
" clip-path="url(#p1ef79d18d1)" style="fill: #0d6efd; stroke: #ffffff; stroke-width: 0.3; stroke-linejoin: miter"/>
   </g>
   <g id="patch_33">
    <path d="M 125.672727 113.555646 
L 129.207273 113.555646 
L 129.207273 113.555646 
L 125.672727 113.555646 
z
" clip-path="url(#p1ef79d18d1)" style="fill: #0d6efd; stroke: #ffffff; stroke-width: 0.3; stroke-linejoin: miter"/>
   </g>
   <g id="patch_34">
    <path d="M 129.207273 113.555646 
L 132.741818 113.555646 
L 132.741818 113.555646 
L 129.207273 113.555646 
z
" clip-path="url(#p1ef79d18d1)" style="fill: #0d6efd; stroke: #ffffff; stroke-width: 0.3; stroke-linejoin: miter"/>
   </g>
   <g id="patch_35">
    <path d="M 132.741818 113.555646 
L 136.276364 113.555646 
L 136.276364 113.555646 
L 132.741818 113.555646 
z
" clip-path="url(#p1ef79d18d1)" style="fill: #0d6efd; stroke: #ffffff; stroke-width: 0.3; stroke-linejoin: miter"/>
   </g>
   <g id="patch_36">
    <path d="M 136.276364 113.555646 
L 139.810909 113.555646 
L 139.810909 113.555646 
L 136.276364 113.555646 
z
" clip-path="url(#p1ef79d18d1)" style="fill: #0d6efd; stroke: #ffffff; stroke-width: 0.3; stroke-linejoin: miter"/>
   </g>
   <g id="patch_37">
    <path d="M 139.810909 113.555646 
L 143.345455 113.555646 
L 143.345455 113.555646 
L 139.810909 113.555646 
z
" clip-path="url(#p1ef79d18d1)" style="fill: #0d6efd; stroke: #ffffff; stroke-width: 0.3; stroke-linejoin: miter"/>
   </g>
   <g id="patch_38">
    <path d="M 143.345455 113.555646 
L 146.88 113.555646 
L 146.88 113.555646 
L 143.345455 113.555646 
z
" clip-path="url(#p1ef79d18d1)" style="fill: #0d6efd; stroke: #ffffff; stroke-width: 0.3; stroke-linejoin: miter"/>
   </g>
   <g id="patch_39">
    <path d="M 146.88 113.555646 
L 150.414545 113.555646 
L 150.414545 113.555646 
L 146.88 113.555646 
z
" clip-path="url(#p1ef79d18d1)" style="fill: #0d6efd; stroke: #ffffff; stroke-width: 0.3; stroke-linejoin: miter"/>
   </g>
   <g id="patch_40">
    <path d="M 150.414545 113.555646 
L 153.949091 113.555646 
L 153.949091 113.555646 
L 150.414545 113.555646 
z
" clip-path="url(#p1ef79d18d1)" style="fill: #0d6efd; stroke: #ffffff; stroke-width: 0.3; stroke-linejoin: miter"/>
   </g>
   <g id="patch_41">
    <path d="M 153.949091 113.555646 
L 157.483636 113.555646 
L 157.483636 113.555646 
L 153.949091 113.555646 
z
" clip-path="url(#p1ef79d18d1)" style="fill: #0d6efd; stroke: #ffffff; stroke-width: 0.3; stroke-linejoin: miter"/>
   </g>
   <g id="patch_42">
    <path d="M 157.483636 113.555646 
L 161.018182 113.555646 
L 161.018182 113.555646 
L 157.483636 113.555646 
z
" clip-path="url(#p1ef79d18d1)" style="fill: #0d6efd; stroke: #ffffff; stroke-width: 0.3; stroke-linejoin: miter"/>
   </g>
   <g id="patch_43">
    <path d="M 161.018182 113.555646 
L 164.552727 113.555646 
L 164.552727 113.555646 
L 161.018182 113.555646 
z
" clip-path="url(#p1ef79d18d1)" style="fill: #0d6efd; stroke: #ffffff; stroke-width: 0.3; stroke-linejoin: miter"/>
   </g>
   <g id="patch_44">
    <path d="M 164.552727 113.555646 
L 168.087273 113.555646 
L 168.087273 113.555646 
L 164.552727 113.555646 
z
" clip-path="url(#p1ef79d18d1)" style="fill: #0d6efd; stroke: #ffffff; stroke-width: 0.3; stroke-linejoin: miter"/>
   </g>
   <g id="patch_45">
    <path d="M 168.087273 113.555646 
L 171.621818 113.555646 
L 171.621818 113.555646 
L 168.087273 113.555646 
z
" clip-path="url(#p1ef79d18d1)" style="fill: #0d6efd; stroke: #ffffff; stroke-width: 0.3; stroke-linejoin: miter"/>
   </g>
   <g id="patch_46">
    <path d="M 171.621818 113.555646 
L 175.156364 113.555646 
L 175.156364 113.555646 
L 171.621818 113.555646 
z
" clip-path="url(#p1ef79d18d1)" style="fill: #0d6efd; stroke: #ffffff; stroke-width: 0.3; stroke-linejoin: miter"/>
   </g>
   <g id="patch_47">
    <path d="M 175.156364 113.555646 
L 178.690909 113.555646 
L 178.690909 113.555646 
L 175.156364 113.555646 
z
" clip-path="url(#p1ef79d18d1)" style="fill: #0d6efd; stroke: #ffffff; stroke-width: 0.3; stroke-linejoin: miter"/>
   </g>
   <g id="patch_48">
    <path d="M 178.690909 113.555646 
L 182.225455 113.555646 
L 182.225455 105.841385 
L 178.690909 105.841385 
z
" clip-path="url(#p1ef79d18d1)" style="fill: #0d6efd; stroke: #ffffff; stroke-width: 0.3; stroke-linejoin: miter"/>
   </g>
   <g id="patch_49">
    <path d="M 182.225455 113.555646 
L 185.76 113.555646 
L 185.76 113.065079 
L 182.225455 113.065079 
z
" clip-path="url(#p1ef79d18d1)" style="fill: #0d6efd; stroke: #ffffff; stroke-width: 0.3; stroke-linejoin: miter"/>
   </g>
   <g id="patch_50">
    <path d="M 185.76 113.555646 
L 189.294545 113.555646 
L 189.294545 88.723963 
L 185.76 88.723963 
z
" clip-path="url(#p1ef79d18d1)" style="fill: #0d6efd; stroke: #ffffff; stroke-width: 0.3; stroke-linejoin: miter"/>
   </g>
   <g id="patch_51">
    <path d="M 189.294545 113.555646 
L 192.829091 113.555646 
L 192.829091 15.693126 
L 189.294545 15.693126 
z
" clip-path="url(#p1ef79d18d1)" style="fill: #0d6efd; stroke: #ffffff; stroke-width: 0.3; stroke-linejoin: miter"/>
   </g>
   <g id="patch_52">
    <path d="M 192.829091 113.555646 
L 196.363636 113.555646 
L 196.363636 99.969559 
L 192.829091 99.969559 
z
" clip-path="url(#p1ef79d18d1)" style="fill: #0d6efd; stroke: #ffffff; stroke-width: 0.3; stroke-linejoin: miter"/>
   </g>
   <g id="patch_53">
    <path d="M 10.8 113.555646 
L 10.8 10.8 
" style="fill: none"/>
   </g>
   <g id="patch_54">
    <path d="M 205.2 113.555646 
L 205.2 10.8 
" style="fill: none"/>
   </g>
   <g id="patch_55">
    <path d="M 10.8 113.555646 
L 205.2 113.555646 
" style="fill: none"/>
   </g>
   <g id="patch_56">
    <path d="M 10.8 10.8 
L 205.2 10.8 
" style="fill: none"/>
   </g>
  </g>
 </g>
 <defs>
  <clipPath id="p1ef79d18d1">
   <rect x="10.8" y="10.8" width="194.4" height="102.755646"/>
  </clipPath>
 </defs>
</svg>
