<?xml version="1.0" encoding="utf-8" standalone="no"?>
<!DOCTYPE svg PUBLIC "-//W3C//DTD SVG 1.1//EN"
  "http://www.w3.org/Graphics/SVG/1.1/DTD/svg11.dtd">
<svg xmlns:xlink="http://www.w3.org/1999/xlink" width="216pt" height="162pt" viewBox="0 0 216 162" xmlns="http://www.w3.org/2000/svg" version="1.1">
 <metadata>
  <rdf:RDF xmlns:dc="http://purl.org/dc/elements/1.1/" xmlns:cc="http://creativecommons.org/ns#" xmlns:rdf="http://www.w3.org/1999/02/22-rdf-syntax-ns#">
   <cc:Work>
    <dc:type rdf:resource="http://purl.org/dc/dcmitype/StillImage"/>
    <dc:date>2025-05-17T19:05:23.694039</dc:date>
    <dc:format>image/svg+xml</dc:format>
    <dc:creator>
     <cc:Agent>
      <dc:title>Matplotlib v3.10.0, https://matplotlib.org/</dc:title>
     </cc:Agent>
    </dc:creator>
   </cc:Work>
  </rdf:RDF>
 </metadata>
 <defs>
  <style type="text/css">*{stroke-linejoin: round; stroke-linecap: butt}</style>
 </defs>
 <g id="figure_1">
  <g id="patch_1">
   <path d="M 0 162 
L 216 162 
L 216 0 
L 0 0 
z
" style="fill: #ffffff"/>
  </g>
  <g id="axes_1">
   <g id="patch_2">
    <path d="M 10.8 122.944549 
L 205.2 122.944549 
L 205.2 10.8 
L 10.8 10.8 
z
" style="fill: #ffffff"/>
   </g>
   <g id="matplotlib.axis_1">
    <g id="xtick_1">
     <g id="text_1">
      <!-- 41.7 -->
      <g style="fill: #262626" transform="translate(38.226147 150.338214) rotate(-45) scale(0.08 -0.08)">
       <defs>
        <path id="DejaVuSans-34" d="M 2419 4116 
L 825 1625 
L 2419 1625 
L 2419 4116 
z
M 2253 4666 
L 3047 4666 
L 3047 1625 
L 3713 1625 
L 3713 1100 
L 3047 1100 
L 3047 0 
L 2419 0 
L 2419 1100 
L 313 1100 
L 313 1709 
L 2253 4666 
z
" transform="scale(0.015625)"/>
        <path id="DejaVuSans-31" d="M 794 531 
L 1825 531 
L 1825 4091 
L 703 3866 
L 703 4441 
L 1819 4666 
L 2450 4666 
L 2450 531 
L 3481 531 
L 3481 0 
L 794 0 
L 794 531 
z
" transform="scale(0.015625)"/>
        <path id="DejaVuSans-2e" d="M 684 794 
L 1344 794 
L 1344 0 
L 684 0 
L 684 794 
z
" transform="scale(0.015625)"/>
        <path id="DejaVuSans-37" d="M 525 4666 
L 3525 4666 
L 3525 4397 
L 1831 0 
L 1172 0 
L 2766 4134 
L 525 4134 
L 525 4666 
z
" transform="scale(0.015625)"/>
       </defs>
       <use xlink:href="#DejaVuSans-34"/>
       <use xlink:href="#DejaVuSans-31" transform="translate(63.623047 0)"/>
       <use xlink:href="#DejaVuSans-2e" transform="translate(127.246094 0)"/>
       <use xlink:href="#DejaVuSans-37" transform="translate(159.033203 0)"/>
      </g>
     </g>
    </g>
    <g id="xtick_2">
     <g id="text_2">
      <!-- 41.8 -->
      <g style="fill: #262626" transform="translate(86.25405 150.338214) rotate(-45) scale(0.08 -0.08)">
       <defs>
        <path id="DejaVuSans-38" d="M 2034 2216 
Q 1584 2216 1326 1975 
Q 1069 1734 1069 1313 
Q 1069 891 1326 650 
Q 1584 409 2034 409 
Q 2484 409 2743 651 
Q 3003 894 3003 1313 
Q 3003 1734 2745 1975 
Q 2488 2216 2034 2216 
z
M 1403 2484 
Q 997 2584 770 2862 
Q 544 3141 544 3541 
Q 544 4100 942 4425 
Q 1341 4750 2034 4750 
Q 2731 4750 3128 4425 
Q 3525 4100 3525 3541 
Q 3525 3141 3298 2862 
Q 3072 2584 2669 2484 
Q 3125 2378 3379 2068 
Q 3634 1759 3634 1313 
Q 3634 634 3220 271 
Q 2806 -91 2034 -91 
Q 1263 -91 848 271 
Q 434 634 434 1313 
Q 434 1759 690 2068 
Q 947 2378 1403 2484 
z
M 1172 3481 
Q 1172 3119 1398 2916 
Q 1625 2713 2034 2713 
Q 2441 2713 2670 2916 
Q 2900 3119 2900 3481 
Q 2900 3844 2670 4047 
Q 2441 4250 2034 4250 
Q 1625 4250 1398 4047 
Q 1172 3844 1172 3481 
z
" transform="scale(0.015625)"/>
       </defs>
       <use xlink:href="#DejaVuSans-34"/>
       <use xlink:href="#DejaVuSans-31" transform="translate(63.623047 0)"/>
       <use xlink:href="#DejaVuSans-2e" transform="translate(127.246094 0)"/>
       <use xlink:href="#DejaVuSans-38" transform="translate(159.033203 0)"/>
      </g>
     </g>
    </g>
    <g id="xtick_3">
     <g id="text_3">
      <!-- 41.9 -->
      <g style="fill: #262626" transform="translate(134.281954 150.338214) rotate(-45) scale(0.08 -0.08)">
       <defs>
        <path id="DejaVuSans-39" d="M 703 97 
L 703 672 
Q 941 559 1184 500 
Q 1428 441 1663 441 
Q 2288 441 2617 861 
Q 2947 1281 2994 2138 
Q 2813 1869 2534 1725 
Q 2256 1581 1919 1581 
Q 1219 1581 811 2004 
Q 403 2428 403 3163 
Q 403 3881 828 4315 
Q 1253 4750 1959 4750 
Q 2769 4750 3195 4129 
Q 3622 3509 3622 2328 
Q 3622 1225 3098 567 
Q 2575 -91 1691 -91 
Q 1453 -91 1209 -44 
Q 966 3 703 97 
z
M 1959 2075 
Q 2384 2075 2632 2365 
Q 2881 2656 2881 3163 
Q 2881 3666 2632 3958 
Q 2384 4250 1959 4250 
Q 1534 4250 1286 3958 
Q 1038 3666 1038 3163 
Q 1038 2656 1286 2365 
Q 1534 2075 1959 2075 
z
" transform="scale(0.015625)"/>
       </defs>
       <use xlink:href="#DejaVuSans-34"/>
       <use xlink:href="#DejaVuSans-31" transform="translate(63.623047 0)"/>
       <use xlink:href="#DejaVuSans-2e" transform="translate(127.246094 0)"/>
       <use xlink:href="#DejaVuSans-39" transform="translate(159.033203 0)"/>
      </g>
     </g>
    </g>
    <g id="xtick_4">
     <g id="text_4">
      <!-- 42.0 -->
      <g style="fill: #262626" transform="translate(182.309858 150.338214) rotate(-45) scale(0.08 -0.08)">
       <defs>
        <path id="DejaVuSans-32" d="M 1228 531 
L 3431 531 
L 3431 0 
L 469 0 
L 469 531 
Q 828 903 1448 1529 
Q 2069 2156 2228 2338 
Q 2531 2678 2651 2914 
Q 2772 3150 2772 3378 
Q 2772 3750 2511 3984 
Q 2250 4219 1831 4219 
Q 1534 4219 1204 4116 
Q 875 4013 500 3803 
L 500 4441 
Q 881 4594 1212 4672 
Q 1544 4750 1819 4750 
Q 2544 4750 2975 4387 
Q 3406 4025 3406 3419 
Q 3406 3131 3298 2873 
Q 3191 2616 2906 2266 
Q 2828 2175 2409 1742 
Q 1991 1309 1228 531 
z
" transform="scale(0.015625)"/>
        <path id="DejaVuSans-30" d="M 2034 4250 
Q 1547 4250 1301 3770 
Q 1056 3291 1056 2328 
Q 1056 1369 1301 889 
Q 1547 409 2034 409 
Q 2525 409 2770 889 
Q 3016 1369 3016 2328 
Q 3016 3291 2770 3770 
Q 2525 4250 2034 4250 
z
M 2034 4750 
Q 2819 4750 3233 4129 
Q 3647 3509 3647 2328 
Q 3647 1150 3233 529 
Q 2819 -91 2034 -91 
Q 1250 -91 836 529 
Q 422 1150 422 2328 
Q 422 3509 836 4129 
Q 1250 4750 2034 4750 
z
" transform="scale(0.015625)"/>
       </defs>
       <use xlink:href="#DejaVuSans-34"/>
       <use xlink:href="#DejaVuSans-32" transform="translate(63.623047 0)"/>
       <use xlink:href="#DejaVuSans-2e" transform="translate(127.246094 0)"/>
       <use xlink:href="#DejaVuSans-30" transform="translate(159.033203 0)"/>
      </g>
     </g>
    </g>
   </g>
   <g id="patch_3">
    <path d="M 19.636364 122.944549 
L 23.170909 122.944549 
L 23.170909 119.702053 
L 19.636364 119.702053 
z
" clip-path="url(#pc5d04fca5e)" style="fill: #0d6efd; stroke: #ffffff; stroke-width: 0.3; stroke-linejoin: miter"/>
   </g>
   <g id="patch_4">
    <path d="M 23.170909 122.944549 
L 26.705455 122.944549 
L 26.705455 122.944549 
L 23.170909 122.944549 
z
" clip-path="url(#pc5d04fca5e)" style="fill: #0d6efd; stroke: #ffffff; stroke-width: 0.3; stroke-linejoin: miter"/>
   </g>
   <g id="patch_5">
    <path d="M 26.705455 122.944549 
L 30.24 122.944549 
L 30.24 122.944549 
L 26.705455 122.944549 
z
" clip-path="url(#pc5d04fca5e)" style="fill: #0d6efd; stroke: #ffffff; stroke-width: 0.3; stroke-linejoin: miter"/>
   </g>
   <g id="patch_6">
    <path d="M 30.24 122.944549 
L 33.774545 122.944549 
L 33.774545 122.944549 
L 30.24 122.944549 
z
" clip-path="url(#pc5d04fca5e)" style="fill: #0d6efd; stroke: #ffffff; stroke-width: 0.3; stroke-linejoin: miter"/>
   </g>
   <g id="patch_7">
    <path d="M 33.774545 122.944549 
L 37.309091 122.944549 
L 37.309091 119.306023 
L 33.774545 119.306023 
z
" clip-path="url(#pc5d04fca5e)" style="fill: #0d6efd; stroke: #ffffff; stroke-width: 0.3; stroke-linejoin: miter"/>
   </g>
   <g id="patch_8">
    <path d="M 37.309091 122.944549 
L 40.843636 122.944549 
L 40.843636 108.439951 
L 37.309091 108.439951 
z
" clip-path="url(#pc5d04fca5e)" style="fill: #0d6efd; stroke: #ffffff; stroke-width: 0.3; stroke-linejoin: miter"/>
   </g>
   <g id="patch_9">
    <path d="M 40.843636 122.944549 
L 44.378182 122.944549 
L 44.378182 119.875316 
L 40.843636 119.875316 
z
" clip-path="url(#pc5d04fca5e)" style="fill: #0d6efd; stroke: #ffffff; stroke-width: 0.3; stroke-linejoin: miter"/>
   </g>
   <g id="patch_10">
    <path d="M 44.378182 122.944549 
L 47.912727 122.944549 
L 47.912727 103.316313 
L 44.378182 103.316313 
z
" clip-path="url(#pc5d04fca5e)" style="fill: #0d6efd; stroke: #ffffff; stroke-width: 0.3; stroke-linejoin: miter"/>
   </g>
   <g id="patch_11">
    <path d="M 47.912727 122.944549 
L 51.447273 122.944549 
L 51.447273 122.944549 
L 47.912727 122.944549 
z
" clip-path="url(#pc5d04fca5e)" style="fill: #0d6efd; stroke: #ffffff; stroke-width: 0.3; stroke-linejoin: miter"/>
   </g>
   <g id="patch_12">
    <path d="M 51.447273 122.944549 
L 54.981818 122.944549 
L 54.981818 106.583561 
L 51.447273 106.583561 
z
" clip-path="url(#pc5d04fca5e)" style="fill: #0d6efd; stroke: #ffffff; stroke-width: 0.3; stroke-linejoin: miter"/>
   </g>
   <g id="patch_13">
    <path d="M 54.981818 122.944549 
L 58.516364 122.944549 
L 58.516364 122.944549 
L 54.981818 122.944549 
z
" clip-path="url(#pc5d04fca5e)" style="fill: #0d6efd; stroke: #ffffff; stroke-width: 0.3; stroke-linejoin: miter"/>
   </g>
   <g id="patch_14">
    <path d="M 58.516364 122.944549 
L 62.050909 122.944549 
L 62.050909 87.574122 
L 58.516364 87.574122 
z
" clip-path="url(#pc5d04fca5e)" style="fill: #0d6efd; stroke: #ffffff; stroke-width: 0.3; stroke-linejoin: miter"/>
   </g>
   <g id="patch_15">
    <path d="M 62.050909 122.944549 
L 65.585455 122.944549 
L 65.585455 114.751679 
L 62.050909 114.751679 
z
" clip-path="url(#pc5d04fca5e)" style="fill: #0d6efd; stroke: #ffffff; stroke-width: 0.3; stroke-linejoin: miter"/>
   </g>
   <g id="patch_16">
    <path d="M 65.585455 122.944549 
L 69.12 122.944549 
L 69.12 97.524375 
L 65.585455 97.524375 
z
" clip-path="url(#pc5d04fca5e)" style="fill: #0d6efd; stroke: #ffffff; stroke-width: 0.3; stroke-linejoin: miter"/>
   </g>
   <g id="patch_17">
    <path d="M 69.12 122.944549 
L 72.654545 122.944549 
L 72.654545 90.32158 
L 69.12 90.32158 
z
" clip-path="url(#pc5d04fca5e)" style="fill: #0d6efd; stroke: #ffffff; stroke-width: 0.3; stroke-linejoin: miter"/>
   </g>
   <g id="patch_18">
    <path d="M 72.654545 122.944549 
L 76.189091 122.944549 
L 76.189091 105.024193 
L 72.654545 105.024193 
z
" clip-path="url(#pc5d04fca5e)" style="fill: #0d6efd; stroke: #ffffff; stroke-width: 0.3; stroke-linejoin: miter"/>
   </g>
   <g id="patch_19">
    <path d="M 76.189091 122.944549 
L 79.723636 122.944549 
L 79.723636 100.76687 
L 76.189091 100.76687 
z
" clip-path="url(#pc5d04fca5e)" style="fill: #0d6efd; stroke: #ffffff; stroke-width: 0.3; stroke-linejoin: miter"/>
   </g>
   <g id="patch_20">
    <path d="M 79.723636 122.944549 
L 83.258182 122.944549 
L 83.258182 99.851051 
L 79.723636 99.851051 
z
" clip-path="url(#pc5d04fca5e)" style="fill: #0d6efd; stroke: #ffffff; stroke-width: 0.3; stroke-linejoin: miter"/>
   </g>
   <g id="patch_21">
    <path d="M 83.258182 122.944549 
L 86.792727 122.944549 
L 86.792727 103.291562 
L 83.258182 103.291562 
z
" clip-path="url(#pc5d04fca5e)" style="fill: #0d6efd; stroke: #ffffff; stroke-width: 0.3; stroke-linejoin: miter"/>
   </g>
   <g id="patch_22">
    <path d="M 86.792727 122.944549 
L 90.327273 122.944549 
L 90.327273 117.796159 
L 86.792727 117.796159 
z
" clip-path="url(#pc5d04fca5e)" style="fill: #0d6efd; stroke: #ffffff; stroke-width: 0.3; stroke-linejoin: miter"/>
   </g>
   <g id="patch_23">
    <path d="M 90.327273 122.944549 
L 93.861818 122.944549 
L 93.861818 110.890387 
L 90.327273 110.890387 
z
" clip-path="url(#pc5d04fca5e)" style="fill: #0d6efd; stroke: #ffffff; stroke-width: 0.3; stroke-linejoin: miter"/>
   </g>
   <g id="patch_24">
    <path d="M 93.861818 122.944549 
L 97.396364 122.944549 
L 97.396364 114.281393 
L 93.861818 114.281393 
z
" clip-path="url(#pc5d04fca5e)" style="fill: #0d6efd; stroke: #ffffff; stroke-width: 0.3; stroke-linejoin: miter"/>
   </g>
   <g id="patch_25">
    <path d="M 97.396364 122.944549 
L 100.930909 122.944549 
L 100.930909 118.291197 
L 97.396364 118.291197 
z
" clip-path="url(#pc5d04fca5e)" style="fill: #0d6efd; stroke: #ffffff; stroke-width: 0.3; stroke-linejoin: miter"/>
   </g>
   <g id="patch_26">
    <path d="M 100.930909 122.944549 
L 104.465455 122.944549 
L 104.465455 119.875316 
L 100.930909 119.875316 
z
" clip-path="url(#pc5d04fca5e)" style="fill: #0d6efd; stroke: #ffffff; stroke-width: 0.3; stroke-linejoin: miter"/>
   </g>
   <g id="patch_27">
    <path d="M 104.465455 122.944549 
L 108 122.944549 
L 108 96.65806 
L 104.465455 96.65806 
z
" clip-path="url(#pc5d04fca5e)" style="fill: #0d6efd; stroke: #ffffff; stroke-width: 0.3; stroke-linejoin: miter"/>
   </g>
   <g id="patch_28">
    <path d="M 108 122.944549 
L 111.534545 122.944549 
L 111.534545 112.103228 
L 108 112.103228 
z
" clip-path="url(#pc5d04fca5e)" style="fill: #0d6efd; stroke: #ffffff; stroke-width: 0.3; stroke-linejoin: miter"/>
   </g>
   <g id="patch_29">
    <path d="M 111.534545 122.944549 
L 115.069091 122.944549 
L 115.069091 109.900312 
L 111.534545 109.900312 
z
" clip-path="url(#pc5d04fca5e)" style="fill: #0d6efd; stroke: #ffffff; stroke-width: 0.3; stroke-linejoin: miter"/>
   </g>
   <g id="patch_30">
    <path d="M 115.069091 122.944549 
L 118.603636 122.944549 
L 118.603636 103.217306 
L 115.069091 103.217306 
z
" clip-path="url(#pc5d04fca5e)" style="fill: #0d6efd; stroke: #ffffff; stroke-width: 0.3; stroke-linejoin: miter"/>
   </g>
   <g id="patch_31">
    <path d="M 118.603636 122.944549 
L 122.138182 122.944549 
L 122.138182 114.281393 
L 118.603636 114.281393 
z
" clip-path="url(#pc5d04fca5e)" style="fill: #0d6efd; stroke: #ffffff; stroke-width: 0.3; stroke-linejoin: miter"/>
   </g>
   <g id="patch_32">
    <path d="M 122.138182 122.944549 
L 125.672727 122.944549 
L 125.672727 60.297558 
L 122.138182 60.297558 
z
" clip-path="url(#pc5d04fca5e)" style="fill: #0d6efd; stroke: #ffffff; stroke-width: 0.3; stroke-linejoin: miter"/>
   </g>
   <g id="patch_33">
    <path d="M 125.672727 122.944549 
L 129.207273 122.944549 
L 129.207273 82.153462 
L 125.672727 82.153462 
z
" clip-path="url(#pc5d04fca5e)" style="fill: #0d6efd; stroke: #ffffff; stroke-width: 0.3; stroke-linejoin: miter"/>
   </g>
   <g id="patch_34">
    <path d="M 129.207273 122.944549 
L 132.741818 122.944549 
L 132.741818 16.140217 
L 129.207273 16.140217 
z
" clip-path="url(#pc5d04fca5e)" style="fill: #0d6efd; stroke: #ffffff; stroke-width: 0.3; stroke-linejoin: miter"/>
   </g>
   <g id="patch_35">
    <path d="M 132.741818 122.944549 
L 136.276364 122.944549 
L 136.276364 88.935475 
L 132.741818 88.935475 
z
" clip-path="url(#pc5d04fca5e)" style="fill: #0d6efd; stroke: #ffffff; stroke-width: 0.3; stroke-linejoin: miter"/>
   </g>
   <g id="patch_36">
    <path d="M 136.276364 122.944549 
L 139.810909 122.944549 
L 139.810909 74.975419 
L 136.276364 74.975419 
z
" clip-path="url(#pc5d04fca5e)" style="fill: #0d6efd; stroke: #ffffff; stroke-width: 0.3; stroke-linejoin: miter"/>
   </g>
   <g id="patch_37">
    <path d="M 139.810909 122.944549 
L 143.345455 122.944549 
L 143.345455 92.673008 
L 139.810909 92.673008 
z
" clip-path="url(#pc5d04fca5e)" style="fill: #0d6efd; stroke: #ffffff; stroke-width: 0.3; stroke-linejoin: miter"/>
   </g>
   <g id="patch_38">
    <path d="M 143.345455 122.944549 
L 146.88 122.944549 
L 146.88 108.489455 
L 143.345455 108.489455 
z
" clip-path="url(#pc5d04fca5e)" style="fill: #0d6efd; stroke: #ffffff; stroke-width: 0.3; stroke-linejoin: miter"/>
   </g>
   <g id="patch_39">
    <path d="M 146.88 122.944549 
L 150.414545 122.944549 
L 150.414545 111.212161 
L 146.88 111.212161 
z
" clip-path="url(#pc5d04fca5e)" style="fill: #0d6efd; stroke: #ffffff; stroke-width: 0.3; stroke-linejoin: miter"/>
   </g>
   <g id="patch_40">
    <path d="M 150.414545 122.944549 
L 153.949091 122.944549 
L 153.949091 108.835981 
L 150.414545 108.835981 
z
" clip-path="url(#pc5d04fca5e)" style="fill: #0d6efd; stroke: #ffffff; stroke-width: 0.3; stroke-linejoin: miter"/>
   </g>
   <g id="patch_41">
    <path d="M 153.949091 122.944549 
L 157.483636 122.944549 
L 157.483636 116.261543 
L 153.949091 116.261543 
z
" clip-path="url(#pc5d04fca5e)" style="fill: #0d6efd; stroke: #ffffff; stroke-width: 0.3; stroke-linejoin: miter"/>
   </g>
   <g id="patch_42">
    <path d="M 157.483636 122.944549 
L 161.018182 122.944549 
L 161.018182 115.816009 
L 157.483636 115.816009 
z
" clip-path="url(#pc5d04fca5e)" style="fill: #0d6efd; stroke: #ffffff; stroke-width: 0.3; stroke-linejoin: miter"/>
   </g>
   <g id="patch_43">
    <path d="M 161.018182 122.944549 
L 164.552727 122.944549 
L 164.552727 113.786356 
L 161.018182 113.786356 
z
" clip-path="url(#pc5d04fca5e)" style="fill: #0d6efd; stroke: #ffffff; stroke-width: 0.3; stroke-linejoin: miter"/>
   </g>
   <g id="patch_44">
    <path d="M 164.552727 122.944549 
L 168.087273 122.944549 
L 168.087273 113.736852 
L 164.552727 113.736852 
z
" clip-path="url(#pc5d04fca5e)" style="fill: #0d6efd; stroke: #ffffff; stroke-width: 0.3; stroke-linejoin: miter"/>
   </g>
   <g id="patch_45">
    <path d="M 168.087273 122.944549 
L 171.621818 122.944549 
L 171.621818 113.019048 
L 168.087273 113.019048 
z
" clip-path="url(#pc5d04fca5e)" style="fill: #0d6efd; stroke: #ffffff; stroke-width: 0.3; stroke-linejoin: miter"/>
   </g>
   <g id="patch_46">
    <path d="M 171.621818 122.944549 
L 175.156364 122.944549 
L 175.156364 114.009123 
L 171.621818 114.009123 
z
" clip-path="url(#pc5d04fca5e)" style="fill: #0d6efd; stroke: #ffffff; stroke-width: 0.3; stroke-linejoin: miter"/>
   </g>
   <g id="patch_47">
    <path d="M 175.156364 122.944549 
L 178.690909 122.944549 
L 178.690909 65.718218 
L 175.156364 65.718218 
z
" clip-path="url(#pc5d04fca5e)" style="fill: #0d6efd; stroke: #ffffff; stroke-width: 0.3; stroke-linejoin: miter"/>
   </g>
   <g id="patch_48">
    <path d="M 178.690909 122.944549 
L 182.225455 122.944549 
L 182.225455 117.226866 
L 178.690909 117.226866 
z
" clip-path="url(#pc5d04fca5e)" style="fill: #0d6efd; stroke: #ffffff; stroke-width: 0.3; stroke-linejoin: miter"/>
   </g>
   <g id="patch_49">
    <path d="M 182.225455 122.944549 
L 185.76 122.944549 
L 185.76 119.52879 
L 182.225455 119.52879 
z
" clip-path="url(#pc5d04fca5e)" style="fill: #0d6efd; stroke: #ffffff; stroke-width: 0.3; stroke-linejoin: miter"/>
   </g>
   <g id="patch_50">
    <path d="M 185.76 122.944549 
L 189.294545 122.944549 
L 189.294545 122.944549 
L 185.76 122.944549 
z
" clip-path="url(#pc5d04fca5e)" style="fill: #0d6efd; stroke: #ffffff; stroke-width: 0.3; stroke-linejoin: miter"/>
   </g>
   <g id="patch_51">
    <path d="M 189.294545 122.944549 
L 192.829091 122.944549 
L 192.829091 122.944549 
L 189.294545 122.944549 
z
" clip-path="url(#pc5d04fca5e)" style="fill: #0d6efd; stroke: #ffffff; stroke-width: 0.3; stroke-linejoin: miter"/>
   </g>
   <g id="patch_52">
    <path d="M 192.829091 122.944549 
L 196.363636 122.944549 
L 196.363636 116.657573 
L 192.829091 116.657573 
z
" clip-path="url(#pc5d04fca5e)" style="fill: #0d6efd; stroke: #ffffff; stroke-width: 0.3; stroke-linejoin: miter"/>
   </g>
   <g id="patch_53">
    <path d="M 10.8 122.944549 
L 10.8 10.8 
" style="fill: none"/>
   </g>
   <g id="patch_54">
    <path d="M 205.2 122.944549 
L 205.2 10.8 
" style="fill: none"/>
   </g>
   <g id="patch_55">
    <path d="M 10.8 122.944549 
L 205.2 122.944549 
" style="fill: none"/>
   </g>
   <g id="patch_56">
    <path d="M 10.8 10.8 
L 205.2 10.8 
" style="fill: none"/>
   </g>
  </g>
 </g>
 <defs>
  <clipPath id="pc5d04fca5e">
   <rect x="10.8" y="10.8" width="194.4" height="112.144549"/>
  </clipPath>
 </defs>
</svg>
