<?xml version="1.0" encoding="utf-8" standalone="no"?>
<!DOCTYPE svg PUBLIC "-//W3C//DTD SVG 1.1//EN"
  "http://www.w3.org/Graphics/SVG/1.1/DTD/svg11.dtd">
<svg xmlns:xlink="http://www.w3.org/1999/xlink" width="216pt" height="162pt" viewBox="0 0 216 162" xmlns="http://www.w3.org/2000/svg" version="1.1">
 <metadata>
  <rdf:RDF xmlns:dc="http://purl.org/dc/elements/1.1/" xmlns:cc="http://creativecommons.org/ns#" xmlns:rdf="http://www.w3.org/1999/02/22-rdf-syntax-ns#">
   <cc:Work>
    <dc:type rdf:resource="http://purl.org/dc/dcmitype/StillImage"/>
    <dc:date>2025-05-17T19:05:22.422431</dc:date>
    <dc:format>image/svg+xml</dc:format>
    <dc:creator>
     <cc:Agent>
      <dc:title>Matplotlib v3.10.0, https://matplotlib.org/</dc:title>
     </cc:Agent>
    </dc:creator>
   </cc:Work>
  </rdf:RDF>
 </metadata>
 <defs>
  <style type="text/css">*{stroke-linejoin: round; stroke-linecap: butt}</style>
 </defs>
 <g id="figure_1">
  <g id="patch_1">
   <path d="M 0 162 
L 216 162 
L 216 0 
L 0 0 
z
" style="fill: #ffffff"/>
  </g>
  <g id="axes_1">
   <g id="patch_2">
    <path d="M 14.487124 121.289919 
L 205.2 121.289919 
L 205.2 10.8 
L 14.487124 10.8 
z
" style="fill: #ffffff"/>
   </g>
   <g id="matplotlib.axis_1">
    <g id="xtick_1">
     <g id="text_1">
      <!-- 0 -->
      <g style="fill: #262626" transform="translate(14.978026 139.687418) rotate(-45) scale(0.08 -0.08)">
       <defs>
        <path id="DejaVuSans-30" d="M 2034 4250 
Q 1547 4250 1301 3770 
Q 1056 3291 1056 2328 
Q 1056 1369 1301 889 
Q 1547 409 2034 409 
Q 2525 409 2770 889 
Q 3016 1369 3016 2328 
Q 3016 3291 2770 3770 
Q 2525 4250 2034 4250 
z
M 2034 4750 
Q 2819 4750 3233 4129 
Q 3647 3509 3647 2328 
Q 3647 1150 3233 529 
Q 2819 -91 2034 -91 
Q 1250 -91 836 529 
Q 422 1150 422 2328 
Q 422 3509 836 4129 
Q 1250 4750 2034 4750 
z
" transform="scale(0.015625)"/>
       </defs>
       <use xlink:href="#DejaVuSans-30"/>
      </g>
     </g>
    </g>
    <g id="xtick_2">
     <g id="text_2">
      <!-- 500 -->
      <g style="fill: #262626" transform="translate(47.141093 146.885765) rotate(-45) scale(0.08 -0.08)">
       <defs>
        <path id="DejaVuSans-35" d="M 691 4666 
L 3169 4666 
L 3169 4134 
L 1269 4134 
L 1269 2991 
Q 1406 3038 1543 3061 
Q 1681 3084 1819 3084 
Q 2600 3084 3056 2656 
Q 3513 2228 3513 1497 
Q 3513 744 3044 326 
Q 2575 -91 1722 -91 
Q 1428 -91 1123 -41 
Q 819 9 494 109 
L 494 744 
Q 775 591 1075 516 
Q 1375 441 1709 441 
Q 2250 441 2565 725 
Q 2881 1009 2881 1497 
Q 2881 1984 2565 2268 
Q 2250 2553 1709 2553 
Q 1456 2553 1204 2497 
Q 953 2441 691 2322 
L 691 4666 
z
" transform="scale(0.015625)"/>
       </defs>
       <use xlink:href="#DejaVuSans-35"/>
       <use xlink:href="#DejaVuSans-30" transform="translate(63.623047 0)"/>
       <use xlink:href="#DejaVuSans-30" transform="translate(127.246094 0)"/>
      </g>
     </g>
    </g>
    <g id="xtick_3">
     <g id="text_3">
      <!-- 1000 -->
      <g style="fill: #262626" transform="translate(81.103746 150.484938) rotate(-45) scale(0.08 -0.08)">
       <defs>
        <path id="DejaVuSans-31" d="M 794 531 
L 1825 531 
L 1825 4091 
L 703 3866 
L 703 4441 
L 1819 4666 
L 2450 4666 
L 2450 531 
L 3481 531 
L 3481 0 
L 794 0 
L 794 531 
z
" transform="scale(0.015625)"/>
       </defs>
       <use xlink:href="#DejaVuSans-31"/>
       <use xlink:href="#DejaVuSans-30" transform="translate(63.623047 0)"/>
       <use xlink:href="#DejaVuSans-30" transform="translate(127.246094 0)"/>
       <use xlink:href="#DejaVuSans-30" transform="translate(190.869141 0)"/>
      </g>
     </g>
    </g>
    <g id="xtick_4">
     <g id="text_4">
      <!-- 1500 -->
      <g style="fill: #262626" transform="translate(116.865987 150.484938) rotate(-45) scale(0.08 -0.08)">
       <use xlink:href="#DejaVuSans-31"/>
       <use xlink:href="#DejaVuSans-35" transform="translate(63.623047 0)"/>
       <use xlink:href="#DejaVuSans-30" transform="translate(127.246094 0)"/>
       <use xlink:href="#DejaVuSans-30" transform="translate(190.869141 0)"/>
      </g>
     </g>
    </g>
    <g id="xtick_5">
     <g id="text_5">
      <!-- 2000 -->
      <g style="fill: #262626" transform="translate(152.628227 150.484938) rotate(-45) scale(0.08 -0.08)">
       <defs>
        <path id="DejaVuSans-32" d="M 1228 531 
L 3431 531 
L 3431 0 
L 469 0 
L 469 531 
Q 828 903 1448 1529 
Q 2069 2156 2228 2338 
Q 2531 2678 2651 2914 
Q 2772 3150 2772 3378 
Q 2772 3750 2511 3984 
Q 2250 4219 1831 4219 
Q 1534 4219 1204 4116 
Q 875 4013 500 3803 
L 500 4441 
Q 881 4594 1212 4672 
Q 1544 4750 1819 4750 
Q 2544 4750 2975 4387 
Q 3406 4025 3406 3419 
Q 3406 3131 3298 2873 
Q 3191 2616 2906 2266 
Q 2828 2175 2409 1742 
Q 1991 1309 1228 531 
z
" transform="scale(0.015625)"/>
       </defs>
       <use xlink:href="#DejaVuSans-32"/>
       <use xlink:href="#DejaVuSans-30" transform="translate(63.623047 0)"/>
       <use xlink:href="#DejaVuSans-30" transform="translate(127.246094 0)"/>
       <use xlink:href="#DejaVuSans-30" transform="translate(190.869141 0)"/>
      </g>
     </g>
    </g>
    <g id="xtick_6">
     <g id="text_6">
      <!-- 2500 -->
      <g style="fill: #262626" transform="translate(188.390467 150.484938) rotate(-45) scale(0.08 -0.08)">
       <use xlink:href="#DejaVuSans-32"/>
       <use xlink:href="#DejaVuSans-35" transform="translate(63.623047 0)"/>
       <use xlink:href="#DejaVuSans-30" transform="translate(127.246094 0)"/>
       <use xlink:href="#DejaVuSans-30" transform="translate(190.869141 0)"/>
      </g>
     </g>
    </g>
   </g>
   <g id="patch_3">
    <path d="M 23.155892 121.289919 
L 26.623398 121.289919 
L 26.623398 69.150112 
L 23.155892 69.150112 
z
" clip-path="url(#p889c52ecaa)" style="fill: #0d6efd; stroke: #ffffff; stroke-width: 0.3; stroke-linejoin: miter"/>
   </g>
   <g id="patch_4">
    <path d="M 26.623398 121.289919 
L 30.090905 121.289919 
L 30.090905 121.289919 
L 26.623398 121.289919 
z
" clip-path="url(#p889c52ecaa)" style="fill: #0d6efd; stroke: #ffffff; stroke-width: 0.3; stroke-linejoin: miter"/>
   </g>
   <g id="patch_5">
    <path d="M 30.090905 121.289919 
L 33.558412 121.289919 
L 33.558412 84.818818 
L 30.090905 84.818818 
z
" clip-path="url(#p889c52ecaa)" style="fill: #0d6efd; stroke: #ffffff; stroke-width: 0.3; stroke-linejoin: miter"/>
   </g>
   <g id="patch_6">
    <path d="M 33.558412 121.289919 
L 37.025919 121.289919 
L 37.025919 121.289919 
L 33.558412 121.289919 
z
" clip-path="url(#p889c52ecaa)" style="fill: #0d6efd; stroke: #ffffff; stroke-width: 0.3; stroke-linejoin: miter"/>
   </g>
   <g id="patch_7">
    <path d="M 37.025919 121.289919 
L 40.493426 121.289919 
L 40.493426 42.362466 
L 37.025919 42.362466 
z
" clip-path="url(#p889c52ecaa)" style="fill: #0d6efd; stroke: #ffffff; stroke-width: 0.3; stroke-linejoin: miter"/>
   </g>
   <g id="patch_8">
    <path d="M 40.493426 121.289919 
L 43.960933 121.289919 
L 43.960933 121.289919 
L 40.493426 121.289919 
z
" clip-path="url(#p889c52ecaa)" style="fill: #0d6efd; stroke: #ffffff; stroke-width: 0.3; stroke-linejoin: miter"/>
   </g>
   <g id="patch_9">
    <path d="M 43.960933 121.289919 
L 47.428439 121.289919 
L 47.428439 31.348955 
L 43.960933 31.348955 
z
" clip-path="url(#p889c52ecaa)" style="fill: #0d6efd; stroke: #ffffff; stroke-width: 0.3; stroke-linejoin: miter"/>
   </g>
   <g id="patch_10">
    <path d="M 47.428439 121.289919 
L 50.895946 121.289919 
L 50.895946 121.289919 
L 47.428439 121.289919 
z
" clip-path="url(#p889c52ecaa)" style="fill: #0d6efd; stroke: #ffffff; stroke-width: 0.3; stroke-linejoin: miter"/>
   </g>
   <g id="patch_11">
    <path d="M 50.895946 121.289919 
L 54.363453 121.289919 
L 54.363453 49.298625 
L 50.895946 49.298625 
z
" clip-path="url(#p889c52ecaa)" style="fill: #0d6efd; stroke: #ffffff; stroke-width: 0.3; stroke-linejoin: miter"/>
   </g>
   <g id="patch_12">
    <path d="M 54.363453 121.289919 
L 57.83096 121.289919 
L 57.83096 121.289919 
L 54.363453 121.289919 
z
" clip-path="url(#p889c52ecaa)" style="fill: #0d6efd; stroke: #ffffff; stroke-width: 0.3; stroke-linejoin: miter"/>
   </g>
   <g id="patch_13">
    <path d="M 57.83096 121.289919 
L 61.298467 121.289919 
L 61.298467 25.4002 
L 57.83096 25.4002 
z
" clip-path="url(#p889c52ecaa)" style="fill: #0d6efd; stroke: #ffffff; stroke-width: 0.3; stroke-linejoin: miter"/>
   </g>
   <g id="patch_14">
    <path d="M 61.298467 121.289919 
L 64.765973 121.289919 
L 64.765973 121.289919 
L 61.298467 121.289919 
z
" clip-path="url(#p889c52ecaa)" style="fill: #0d6efd; stroke: #ffffff; stroke-width: 0.3; stroke-linejoin: miter"/>
   </g>
   <g id="patch_15">
    <path d="M 64.765973 121.289919 
L 68.23348 121.289919 
L 68.23348 28.082614 
L 64.765973 28.082614 
z
" clip-path="url(#p889c52ecaa)" style="fill: #0d6efd; stroke: #ffffff; stroke-width: 0.3; stroke-linejoin: miter"/>
   </g>
   <g id="patch_16">
    <path d="M 68.23348 121.289919 
L 71.700987 121.289919 
L 71.700987 121.289919 
L 68.23348 121.289919 
z
" clip-path="url(#p889c52ecaa)" style="fill: #0d6efd; stroke: #ffffff; stroke-width: 0.3; stroke-linejoin: miter"/>
   </g>
   <g id="patch_17">
    <path d="M 71.700987 121.289919 
L 75.168494 121.289919 
L 75.168494 16.061425 
L 71.700987 16.061425 
z
" clip-path="url(#p889c52ecaa)" style="fill: #0d6efd; stroke: #ffffff; stroke-width: 0.3; stroke-linejoin: miter"/>
   </g>
   <g id="patch_18">
    <path d="M 75.168494 121.289919 
L 78.636001 121.289919 
L 78.636001 121.289919 
L 75.168494 121.289919 
z
" clip-path="url(#p889c52ecaa)" style="fill: #0d6efd; stroke: #ffffff; stroke-width: 0.3; stroke-linejoin: miter"/>
   </g>
   <g id="patch_19">
    <path d="M 78.636001 121.289919 
L 82.103508 121.289919 
L 82.103508 53.992343 
L 78.636001 53.992343 
z
" clip-path="url(#p889c52ecaa)" style="fill: #0d6efd; stroke: #ffffff; stroke-width: 0.3; stroke-linejoin: miter"/>
   </g>
   <g id="patch_20">
    <path d="M 82.103508 121.289919 
L 85.571014 121.289919 
L 85.571014 121.289919 
L 82.103508 121.289919 
z
" clip-path="url(#p889c52ecaa)" style="fill: #0d6efd; stroke: #ffffff; stroke-width: 0.3; stroke-linejoin: miter"/>
   </g>
   <g id="patch_21">
    <path d="M 85.571014 121.289919 
L 89.038521 121.289919 
L 89.038521 68.476974 
L 85.571014 68.476974 
z
" clip-path="url(#p889c52ecaa)" style="fill: #0d6efd; stroke: #ffffff; stroke-width: 0.3; stroke-linejoin: miter"/>
   </g>
   <g id="patch_22">
    <path d="M 89.038521 121.289919 
L 92.506028 121.289919 
L 92.506028 110.596757 
L 89.038521 110.596757 
z
" clip-path="url(#p889c52ecaa)" style="fill: #0d6efd; stroke: #ffffff; stroke-width: 0.3; stroke-linejoin: miter"/>
   </g>
   <g id="patch_23">
    <path d="M 92.506028 121.289919 
L 95.973535 121.289919 
L 95.973535 60.170209 
L 92.506028 60.170209 
z
" clip-path="url(#p889c52ecaa)" style="fill: #0d6efd; stroke: #ffffff; stroke-width: 0.3; stroke-linejoin: miter"/>
   </g>
   <g id="patch_24">
    <path d="M 95.973535 121.289919 
L 99.441042 121.289919 
L 99.441042 85.015487 
L 95.973535 85.015487 
z
" clip-path="url(#p889c52ecaa)" style="fill: #0d6efd; stroke: #ffffff; stroke-width: 0.3; stroke-linejoin: miter"/>
   </g>
   <g id="patch_25">
    <path d="M 99.441042 121.289919 
L 102.908549 121.289919 
L 102.908549 95.15108 
L 99.441042 95.15108 
z
" clip-path="url(#p889c52ecaa)" style="fill: #0d6efd; stroke: #ffffff; stroke-width: 0.3; stroke-linejoin: miter"/>
   </g>
   <g id="patch_26">
    <path d="M 102.908549 121.289919 
L 106.376055 121.289919 
L 106.376055 111.340859 
L 102.908549 111.340859 
z
" clip-path="url(#p889c52ecaa)" style="fill: #0d6efd; stroke: #ffffff; stroke-width: 0.3; stroke-linejoin: miter"/>
   </g>
   <g id="patch_27">
    <path d="M 106.376055 121.289919 
L 109.843562 121.289919 
L 109.843562 121.289919 
L 106.376055 121.289919 
z
" clip-path="url(#p889c52ecaa)" style="fill: #0d6efd; stroke: #ffffff; stroke-width: 0.3; stroke-linejoin: miter"/>
   </g>
   <g id="patch_28">
    <path d="M 109.843562 121.289919 
L 113.311069 121.289919 
L 113.311069 121.289919 
L 109.843562 121.289919 
z
" clip-path="url(#p889c52ecaa)" style="fill: #0d6efd; stroke: #ffffff; stroke-width: 0.3; stroke-linejoin: miter"/>
   </g>
   <g id="patch_29">
    <path d="M 113.311069 121.289919 
L 116.778576 121.289919 
L 116.778576 116.683384 
L 113.311069 116.683384 
z
" clip-path="url(#p889c52ecaa)" style="fill: #0d6efd; stroke: #ffffff; stroke-width: 0.3; stroke-linejoin: miter"/>
   </g>
   <g id="patch_30">
    <path d="M 116.778576 121.289919 
L 120.246083 121.289919 
L 120.246083 79.766228 
L 116.778576 79.766228 
z
" clip-path="url(#p889c52ecaa)" style="fill: #0d6efd; stroke: #ffffff; stroke-width: 0.3; stroke-linejoin: miter"/>
   </g>
   <g id="patch_31">
    <path d="M 120.246083 121.289919 
L 123.71359 121.289919 
L 123.71359 104.88725 
L 120.246083 104.88725 
z
" clip-path="url(#p889c52ecaa)" style="fill: #0d6efd; stroke: #ffffff; stroke-width: 0.3; stroke-linejoin: miter"/>
   </g>
   <g id="patch_32">
    <path d="M 123.71359 121.289919 
L 127.181096 121.289919 
L 127.181096 68.085662 
L 123.71359 68.085662 
z
" clip-path="url(#p889c52ecaa)" style="fill: #0d6efd; stroke: #ffffff; stroke-width: 0.3; stroke-linejoin: miter"/>
   </g>
   <g id="patch_33">
    <path d="M 127.181096 121.289919 
L 130.648603 121.289919 
L 130.648603 121.289919 
L 127.181096 121.289919 
z
" clip-path="url(#p889c52ecaa)" style="fill: #0d6efd; stroke: #ffffff; stroke-width: 0.3; stroke-linejoin: miter"/>
   </g>
   <g id="patch_34">
    <path d="M 130.648603 121.289919 
L 134.11611 121.289919 
L 134.11611 93.403354 
L 130.648603 93.403354 
z
" clip-path="url(#p889c52ecaa)" style="fill: #0d6efd; stroke: #ffffff; stroke-width: 0.3; stroke-linejoin: miter"/>
   </g>
   <g id="patch_35">
    <path d="M 134.11611 121.289919 
L 137.583617 121.289919 
L 137.583617 121.289919 
L 134.11611 121.289919 
z
" clip-path="url(#p889c52ecaa)" style="fill: #0d6efd; stroke: #ffffff; stroke-width: 0.3; stroke-linejoin: miter"/>
   </g>
   <g id="patch_36">
    <path d="M 137.583617 121.289919 
L 141.051124 121.289919 
L 141.051124 82.004614 
L 137.583617 82.004614 
z
" clip-path="url(#p889c52ecaa)" style="fill: #0d6efd; stroke: #ffffff; stroke-width: 0.3; stroke-linejoin: miter"/>
   </g>
   <g id="patch_37">
    <path d="M 141.051124 121.289919 
L 144.518631 121.289919 
L 144.518631 121.289919 
L 141.051124 121.289919 
z
" clip-path="url(#p889c52ecaa)" style="fill: #0d6efd; stroke: #ffffff; stroke-width: 0.3; stroke-linejoin: miter"/>
   </g>
   <g id="patch_38">
    <path d="M 144.518631 121.289919 
L 147.986137 121.289919 
L 147.986137 62.41265 
L 144.518631 62.41265 
z
" clip-path="url(#p889c52ecaa)" style="fill: #0d6efd; stroke: #ffffff; stroke-width: 0.3; stroke-linejoin: miter"/>
   </g>
   <g id="patch_39">
    <path d="M 147.986137 121.289919 
L 151.453644 121.289919 
L 151.453644 121.289919 
L 147.986137 121.289919 
z
" clip-path="url(#p889c52ecaa)" style="fill: #0d6efd; stroke: #ffffff; stroke-width: 0.3; stroke-linejoin: miter"/>
   </g>
   <g id="patch_40">
    <path d="M 151.453644 121.289919 
L 154.921151 121.289919 
L 154.921151 94.861144 
L 151.453644 94.861144 
z
" clip-path="url(#p889c52ecaa)" style="fill: #0d6efd; stroke: #ffffff; stroke-width: 0.3; stroke-linejoin: miter"/>
   </g>
   <g id="patch_41">
    <path d="M 154.921151 121.289919 
L 158.388658 121.289919 
L 158.388658 121.289919 
L 154.921151 121.289919 
z
" clip-path="url(#p889c52ecaa)" style="fill: #0d6efd; stroke: #ffffff; stroke-width: 0.3; stroke-linejoin: miter"/>
   </g>
   <g id="patch_42">
    <path d="M 158.388658 121.289919 
L 161.856165 121.289919 
L 161.856165 116.259632 
L 158.388658 116.259632 
z
" clip-path="url(#p889c52ecaa)" style="fill: #0d6efd; stroke: #ffffff; stroke-width: 0.3; stroke-linejoin: miter"/>
   </g>
   <g id="patch_43">
    <path d="M 161.856165 121.289919 
L 165.323671 121.289919 
L 165.323671 121.289919 
L 161.856165 121.289919 
z
" clip-path="url(#p889c52ecaa)" style="fill: #0d6efd; stroke: #ffffff; stroke-width: 0.3; stroke-linejoin: miter"/>
   </g>
   <g id="patch_44">
    <path d="M 165.323671 121.289919 
L 168.791178 121.289919 
L 168.791178 121.289919 
L 165.323671 121.289919 
z
" clip-path="url(#p889c52ecaa)" style="fill: #0d6efd; stroke: #ffffff; stroke-width: 0.3; stroke-linejoin: miter"/>
   </g>
   <g id="patch_45">
    <path d="M 168.791178 121.289919 
L 172.258685 121.289919 
L 172.258685 121.289919 
L 168.791178 121.289919 
z
" clip-path="url(#p889c52ecaa)" style="fill: #0d6efd; stroke: #ffffff; stroke-width: 0.3; stroke-linejoin: miter"/>
   </g>
   <g id="patch_46">
    <path d="M 172.258685 121.289919 
L 175.726192 121.289919 
L 175.726192 67.605139 
L 172.258685 67.605139 
z
" clip-path="url(#p889c52ecaa)" style="fill: #0d6efd; stroke: #ffffff; stroke-width: 0.3; stroke-linejoin: miter"/>
   </g>
   <g id="patch_47">
    <path d="M 175.726192 121.289919 
L 179.193699 121.289919 
L 179.193699 121.289919 
L 175.726192 121.289919 
z
" clip-path="url(#p889c52ecaa)" style="fill: #0d6efd; stroke: #ffffff; stroke-width: 0.3; stroke-linejoin: miter"/>
   </g>
   <g id="patch_48">
    <path d="M 179.193699 121.289919 
L 182.661206 121.289919 
L 182.661206 121.289919 
L 179.193699 121.289919 
z
" clip-path="url(#p889c52ecaa)" style="fill: #0d6efd; stroke: #ffffff; stroke-width: 0.3; stroke-linejoin: miter"/>
   </g>
   <g id="patch_49">
    <path d="M 182.661206 121.289919 
L 186.128712 121.289919 
L 186.128712 121.289919 
L 182.661206 121.289919 
z
" clip-path="url(#p889c52ecaa)" style="fill: #0d6efd; stroke: #ffffff; stroke-width: 0.3; stroke-linejoin: miter"/>
   </g>
   <g id="patch_50">
    <path d="M 186.128712 121.289919 
L 189.596219 121.289919 
L 189.596219 79.11742 
L 186.128712 79.11742 
z
" clip-path="url(#p889c52ecaa)" style="fill: #0d6efd; stroke: #ffffff; stroke-width: 0.3; stroke-linejoin: miter"/>
   </g>
   <g id="patch_51">
    <path d="M 189.596219 121.289919 
L 193.063726 121.289919 
L 193.063726 121.289919 
L 189.596219 121.289919 
z
" clip-path="url(#p889c52ecaa)" style="fill: #0d6efd; stroke: #ffffff; stroke-width: 0.3; stroke-linejoin: miter"/>
   </g>
   <g id="patch_52">
    <path d="M 193.063726 121.289919 
L 196.531233 121.289919 
L 196.531233 39.223859 
L 193.063726 39.223859 
z
" clip-path="url(#p889c52ecaa)" style="fill: #0d6efd; stroke: #ffffff; stroke-width: 0.3; stroke-linejoin: miter"/>
   </g>
   <g id="patch_53">
    <path d="M 14.487124 121.289919 
L 14.487124 10.8 
" style="fill: none"/>
   </g>
   <g id="patch_54">
    <path d="M 205.2 121.289919 
L 205.2 10.8 
" style="fill: none"/>
   </g>
   <g id="patch_55">
    <path d="M 14.487124 121.289919 
L 205.2 121.289919 
" style="fill: none"/>
   </g>
   <g id="patch_56">
    <path d="M 14.487124 10.8 
L 205.2 10.8 
" style="fill: none"/>
   </g>
  </g>
 </g>
 <defs>
  <clipPath id="p889c52ecaa">
   <rect x="14.487124" y="10.8" width="190.712876" height="110.489919"/>
  </clipPath>
 </defs>
</svg>
