<?xml version="1.0" encoding="utf-8" standalone="no"?>
<!DOCTYPE svg PUBLIC "-//W3C//DTD SVG 1.1//EN"
  "http://www.w3.org/Graphics/SVG/1.1/DTD/svg11.dtd">
<svg xmlns:xlink="http://www.w3.org/1999/xlink" width="216pt" height="162pt" viewBox="0 0 216 162" xmlns="http://www.w3.org/2000/svg" version="1.1">
 <metadata>
  <rdf:RDF xmlns:dc="http://purl.org/dc/elements/1.1/" xmlns:cc="http://creativecommons.org/ns#" xmlns:rdf="http://www.w3.org/1999/02/22-rdf-syntax-ns#">
   <cc:Work>
    <dc:type rdf:resource="http://purl.org/dc/dcmitype/StillImage"/>
    <dc:date>2025-05-17T19:05:23.882964</dc:date>
    <dc:format>image/svg+xml</dc:format>
    <dc:creator>
     <cc:Agent>
      <dc:title>Matplotlib v3.10.0, https://matplotlib.org/</dc:title>
     </cc:Agent>
    </dc:creator>
   </cc:Work>
  </rdf:RDF>
 </metadata>
 <defs>
  <style type="text/css">*{stroke-linejoin: round; stroke-linecap: butt}</style>
 </defs>
 <g id="figure_1">
  <g id="patch_1">
   <path d="M 0 162 
L 216 162 
L 216 0 
L 0 0 
z
" style="fill: #ffffff"/>
  </g>
  <g id="axes_1">
   <g id="patch_2">
    <path d="M 11.496011 118.107938 
L 205.2 118.107938 
L 205.2 10.8 
L 11.496011 10.8 
z
" style="fill: #ffffff"/>
   </g>
   <g id="matplotlib.axis_1">
    <g id="xtick_1">
     <g id="text_1">
      <!-- −87.9 -->
      <g style="fill: #262626" transform="translate(16.654774 150.24187) rotate(-45) scale(0.08 -0.08)">
       <defs>
        <path id="DejaVuSans-2212" d="M 678 2272 
L 4684 2272 
L 4684 1741 
L 678 1741 
L 678 2272 
z
" transform="scale(0.015625)"/>
        <path id="DejaVuSans-38" d="M 2034 2216 
Q 1584 2216 1326 1975 
Q 1069 1734 1069 1313 
Q 1069 891 1326 650 
Q 1584 409 2034 409 
Q 2484 409 2743 651 
Q 3003 894 3003 1313 
Q 3003 1734 2745 1975 
Q 2488 2216 2034 2216 
z
M 1403 2484 
Q 997 2584 770 2862 
Q 544 3141 544 3541 
Q 544 4100 942 4425 
Q 1341 4750 2034 4750 
Q 2731 4750 3128 4425 
Q 3525 4100 3525 3541 
Q 3525 3141 3298 2862 
Q 3072 2584 2669 2484 
Q 3125 2378 3379 2068 
Q 3634 1759 3634 1313 
Q 3634 634 3220 271 
Q 2806 -91 2034 -91 
Q 1263 -91 848 271 
Q 434 634 434 1313 
Q 434 1759 690 2068 
Q 947 2378 1403 2484 
z
M 1172 3481 
Q 1172 3119 1398 2916 
Q 1625 2713 2034 2713 
Q 2441 2713 2670 2916 
Q 2900 3119 2900 3481 
Q 2900 3844 2670 4047 
Q 2441 4250 2034 4250 
Q 1625 4250 1398 4047 
Q 1172 3844 1172 3481 
z
" transform="scale(0.015625)"/>
        <path id="DejaVuSans-37" d="M 525 4666 
L 3525 4666 
L 3525 4397 
L 1831 0 
L 1172 0 
L 2766 4134 
L 525 4134 
L 525 4666 
z
" transform="scale(0.015625)"/>
        <path id="DejaVuSans-2e" d="M 684 794 
L 1344 794 
L 1344 0 
L 684 0 
L 684 794 
z
" transform="scale(0.015625)"/>
        <path id="DejaVuSans-39" d="M 703 97 
L 703 672 
Q 941 559 1184 500 
Q 1428 441 1663 441 
Q 2288 441 2617 861 
Q 2947 1281 2994 2138 
Q 2813 1869 2534 1725 
Q 2256 1581 1919 1581 
Q 1219 1581 811 2004 
Q 403 2428 403 3163 
Q 403 3881 828 4315 
Q 1253 4750 1959 4750 
Q 2769 4750 3195 4129 
Q 3622 3509 3622 2328 
Q 3622 1225 3098 567 
Q 2575 -91 1691 -91 
Q 1453 -91 1209 -44 
Q 966 3 703 97 
z
M 1959 2075 
Q 2384 2075 2632 2365 
Q 2881 2656 2881 3163 
Q 2881 3666 2632 3958 
Q 2384 4250 1959 4250 
Q 1534 4250 1286 3958 
Q 1038 3666 1038 3163 
Q 1038 2656 1286 2365 
Q 1534 2075 1959 2075 
z
" transform="scale(0.015625)"/>
       </defs>
       <use xlink:href="#DejaVuSans-2212"/>
       <use xlink:href="#DejaVuSans-38" transform="translate(83.789062 0)"/>
       <use xlink:href="#DejaVuSans-37" transform="translate(147.412109 0)"/>
       <use xlink:href="#DejaVuSans-2e" transform="translate(211.035156 0)"/>
       <use xlink:href="#DejaVuSans-39" transform="translate(242.822266 0)"/>
      </g>
     </g>
    </g>
    <g id="xtick_2">
     <g id="text_2">
      <!-- −87.8 -->
      <g style="fill: #262626" transform="translate(62.969314 150.24187) rotate(-45) scale(0.08 -0.08)">
       <use xlink:href="#DejaVuSans-2212"/>
       <use xlink:href="#DejaVuSans-38" transform="translate(83.789062 0)"/>
       <use xlink:href="#DejaVuSans-37" transform="translate(147.412109 0)"/>
       <use xlink:href="#DejaVuSans-2e" transform="translate(211.035156 0)"/>
       <use xlink:href="#DejaVuSans-38" transform="translate(242.822266 0)"/>
      </g>
     </g>
    </g>
    <g id="xtick_3">
     <g id="text_3">
      <!-- −87.7 -->
      <g style="fill: #262626" transform="translate(109.283854 150.24187) rotate(-45) scale(0.08 -0.08)">
       <use xlink:href="#DejaVuSans-2212"/>
       <use xlink:href="#DejaVuSans-38" transform="translate(83.789062 0)"/>
       <use xlink:href="#DejaVuSans-37" transform="translate(147.412109 0)"/>
       <use xlink:href="#DejaVuSans-2e" transform="translate(211.035156 0)"/>
       <use xlink:href="#DejaVuSans-37" transform="translate(242.822266 0)"/>
      </g>
     </g>
    </g>
    <g id="xtick_4">
     <g id="text_4">
      <!-- −87.6 -->
      <g style="fill: #262626" transform="translate(155.598394 150.24187) rotate(-45) scale(0.08 -0.08)">
       <defs>
        <path id="DejaVuSans-36" d="M 2113 2584 
Q 1688 2584 1439 2293 
Q 1191 2003 1191 1497 
Q 1191 994 1439 701 
Q 1688 409 2113 409 
Q 2538 409 2786 701 
Q 3034 994 3034 1497 
Q 3034 2003 2786 2293 
Q 2538 2584 2113 2584 
z
M 3366 4563 
L 3366 3988 
Q 3128 4100 2886 4159 
Q 2644 4219 2406 4219 
Q 1781 4219 1451 3797 
Q 1122 3375 1075 2522 
Q 1259 2794 1537 2939 
Q 1816 3084 2150 3084 
Q 2853 3084 3261 2657 
Q 3669 2231 3669 1497 
Q 3669 778 3244 343 
Q 2819 -91 2113 -91 
Q 1303 -91 875 529 
Q 447 1150 447 2328 
Q 447 3434 972 4092 
Q 1497 4750 2381 4750 
Q 2619 4750 2861 4703 
Q 3103 4656 3366 4563 
z
" transform="scale(0.015625)"/>
       </defs>
       <use xlink:href="#DejaVuSans-2212"/>
       <use xlink:href="#DejaVuSans-38" transform="translate(83.789062 0)"/>
       <use xlink:href="#DejaVuSans-37" transform="translate(147.412109 0)"/>
       <use xlink:href="#DejaVuSans-2e" transform="translate(211.035156 0)"/>
       <use xlink:href="#DejaVuSans-36" transform="translate(242.822266 0)"/>
      </g>
     </g>
    </g>
   </g>
   <g id="patch_3">
    <path d="M 20.300738 118.107938 
L 23.822629 118.107938 
L 23.822629 86.146277 
L 20.300738 86.146277 
z
" clip-path="url(#p26180a65f1)" style="fill: #0d6efd; stroke: #ffffff; stroke-width: 0.3; stroke-linejoin: miter"/>
   </g>
   <g id="patch_4">
    <path d="M 23.822629 118.107938 
L 27.34452 118.107938 
L 27.34452 118.107938 
L 23.822629 118.107938 
z
" clip-path="url(#p26180a65f1)" style="fill: #0d6efd; stroke: #ffffff; stroke-width: 0.3; stroke-linejoin: miter"/>
   </g>
   <g id="patch_5">
    <path d="M 27.34452 118.107938 
L 30.86641 118.107938 
L 30.86641 116.463608 
L 27.34452 116.463608 
z
" clip-path="url(#p26180a65f1)" style="fill: #0d6efd; stroke: #ffffff; stroke-width: 0.3; stroke-linejoin: miter"/>
   </g>
   <g id="patch_6">
    <path d="M 30.86641 118.107938 
L 34.388301 118.107938 
L 34.388301 118.107938 
L 30.86641 118.107938 
z
" clip-path="url(#p26180a65f1)" style="fill: #0d6efd; stroke: #ffffff; stroke-width: 0.3; stroke-linejoin: miter"/>
   </g>
   <g id="patch_7">
    <path d="M 34.388301 118.107938 
L 37.910192 118.107938 
L 37.910192 118.107938 
L 34.388301 118.107938 
z
" clip-path="url(#p26180a65f1)" style="fill: #0d6efd; stroke: #ffffff; stroke-width: 0.3; stroke-linejoin: miter"/>
   </g>
   <g id="patch_8">
    <path d="M 37.910192 118.107938 
L 41.432082 118.107938 
L 41.432082 118.107938 
L 37.910192 118.107938 
z
" clip-path="url(#p26180a65f1)" style="fill: #0d6efd; stroke: #ffffff; stroke-width: 0.3; stroke-linejoin: miter"/>
   </g>
   <g id="patch_9">
    <path d="M 41.432082 118.107938 
L 44.953973 118.107938 
L 44.953973 118.107938 
L 41.432082 118.107938 
z
" clip-path="url(#p26180a65f1)" style="fill: #0d6efd; stroke: #ffffff; stroke-width: 0.3; stroke-linejoin: miter"/>
   </g>
   <g id="patch_10">
    <path d="M 44.953973 118.107938 
L 48.475864 118.107938 
L 48.475864 118.107938 
L 44.953973 118.107938 
z
" clip-path="url(#p26180a65f1)" style="fill: #0d6efd; stroke: #ffffff; stroke-width: 0.3; stroke-linejoin: miter"/>
   </g>
   <g id="patch_11">
    <path d="M 48.475864 118.107938 
L 51.997754 118.107938 
L 51.997754 118.107938 
L 48.475864 118.107938 
z
" clip-path="url(#p26180a65f1)" style="fill: #0d6efd; stroke: #ffffff; stroke-width: 0.3; stroke-linejoin: miter"/>
   </g>
   <g id="patch_12">
    <path d="M 51.997754 118.107938 
L 55.519645 118.107938 
L 55.519645 118.107938 
L 51.997754 118.107938 
z
" clip-path="url(#p26180a65f1)" style="fill: #0d6efd; stroke: #ffffff; stroke-width: 0.3; stroke-linejoin: miter"/>
   </g>
   <g id="patch_13">
    <path d="M 55.519645 118.107938 
L 59.041536 118.107938 
L 59.041536 118.107938 
L 55.519645 118.107938 
z
" clip-path="url(#p26180a65f1)" style="fill: #0d6efd; stroke: #ffffff; stroke-width: 0.3; stroke-linejoin: miter"/>
   </g>
   <g id="patch_14">
    <path d="M 59.041536 118.107938 
L 62.563427 118.107938 
L 62.563427 118.107938 
L 59.041536 118.107938 
z
" clip-path="url(#p26180a65f1)" style="fill: #0d6efd; stroke: #ffffff; stroke-width: 0.3; stroke-linejoin: miter"/>
   </g>
   <g id="patch_15">
    <path d="M 62.563427 118.107938 
L 66.085317 118.107938 
L 66.085317 118.107938 
L 62.563427 118.107938 
z
" clip-path="url(#p26180a65f1)" style="fill: #0d6efd; stroke: #ffffff; stroke-width: 0.3; stroke-linejoin: miter"/>
   </g>
   <g id="patch_16">
    <path d="M 66.085317 118.107938 
L 69.607208 118.107938 
L 69.607208 118.107938 
L 66.085317 118.107938 
z
" clip-path="url(#p26180a65f1)" style="fill: #0d6efd; stroke: #ffffff; stroke-width: 0.3; stroke-linejoin: miter"/>
   </g>
   <g id="patch_17">
    <path d="M 69.607208 118.107938 
L 73.129099 118.107938 
L 73.129099 118.107938 
L 69.607208 118.107938 
z
" clip-path="url(#p26180a65f1)" style="fill: #0d6efd; stroke: #ffffff; stroke-width: 0.3; stroke-linejoin: miter"/>
   </g>
   <g id="patch_18">
    <path d="M 73.129099 118.107938 
L 76.650989 118.107938 
L 76.650989 112.41151 
L 73.129099 112.41151 
z
" clip-path="url(#p26180a65f1)" style="fill: #0d6efd; stroke: #ffffff; stroke-width: 0.3; stroke-linejoin: miter"/>
   </g>
   <g id="patch_19">
    <path d="M 76.650989 118.107938 
L 80.17288 118.107938 
L 80.17288 116.47829 
L 76.650989 116.47829 
z
" clip-path="url(#p26180a65f1)" style="fill: #0d6efd; stroke: #ffffff; stroke-width: 0.3; stroke-linejoin: miter"/>
   </g>
   <g id="patch_20">
    <path d="M 80.17288 118.107938 
L 83.694771 118.107938 
L 83.694771 118.107938 
L 80.17288 118.107938 
z
" clip-path="url(#p26180a65f1)" style="fill: #0d6efd; stroke: #ffffff; stroke-width: 0.3; stroke-linejoin: miter"/>
   </g>
   <g id="patch_21">
    <path d="M 83.694771 118.107938 
L 87.216661 118.107938 
L 87.216661 113.336445 
L 83.694771 113.336445 
z
" clip-path="url(#p26180a65f1)" style="fill: #0d6efd; stroke: #ffffff; stroke-width: 0.3; stroke-linejoin: miter"/>
   </g>
   <g id="patch_22">
    <path d="M 87.216661 118.107938 
L 90.738552 118.107938 
L 90.738552 116.096571 
L 87.216661 116.096571 
z
" clip-path="url(#p26180a65f1)" style="fill: #0d6efd; stroke: #ffffff; stroke-width: 0.3; stroke-linejoin: miter"/>
   </g>
   <g id="patch_23">
    <path d="M 90.738552 118.107938 
L 94.260443 118.107938 
L 94.260443 116.316793 
L 90.738552 116.316793 
z
" clip-path="url(#p26180a65f1)" style="fill: #0d6efd; stroke: #ffffff; stroke-width: 0.3; stroke-linejoin: miter"/>
   </g>
   <g id="patch_24">
    <path d="M 94.260443 118.107938 
L 97.782334 118.107938 
L 97.782334 79.745136 
L 94.260443 79.745136 
z
" clip-path="url(#p26180a65f1)" style="fill: #0d6efd; stroke: #ffffff; stroke-width: 0.3; stroke-linejoin: miter"/>
   </g>
   <g id="patch_25">
    <path d="M 97.782334 118.107938 
L 101.304224 118.107938 
L 101.304224 114.070521 
L 97.782334 114.070521 
z
" clip-path="url(#p26180a65f1)" style="fill: #0d6efd; stroke: #ffffff; stroke-width: 0.3; stroke-linejoin: miter"/>
   </g>
   <g id="patch_26">
    <path d="M 101.304224 118.107938 
L 104.826115 118.107938 
L 104.826115 109.622022 
L 101.304224 109.622022 
z
" clip-path="url(#p26180a65f1)" style="fill: #0d6efd; stroke: #ffffff; stroke-width: 0.3; stroke-linejoin: miter"/>
   </g>
   <g id="patch_27">
    <path d="M 104.826115 118.107938 
L 108.348006 118.107938 
L 108.348006 107.390431 
L 104.826115 107.390431 
z
" clip-path="url(#p26180a65f1)" style="fill: #0d6efd; stroke: #ffffff; stroke-width: 0.3; stroke-linejoin: miter"/>
   </g>
   <g id="patch_28">
    <path d="M 108.348006 118.107938 
L 111.869896 118.107938 
L 111.869896 116.551698 
L 108.348006 116.551698 
z
" clip-path="url(#p26180a65f1)" style="fill: #0d6efd; stroke: #ffffff; stroke-width: 0.3; stroke-linejoin: miter"/>
   </g>
   <g id="patch_29">
    <path d="M 111.869896 118.107938 
L 115.391787 118.107938 
L 115.391787 102.501486 
L 111.869896 102.501486 
z
" clip-path="url(#p26180a65f1)" style="fill: #0d6efd; stroke: #ffffff; stroke-width: 0.3; stroke-linejoin: miter"/>
   </g>
   <g id="patch_30">
    <path d="M 115.391787 118.107938 
L 118.913678 118.107938 
L 118.913678 112.235332 
L 115.391787 112.235332 
z
" clip-path="url(#p26180a65f1)" style="fill: #0d6efd; stroke: #ffffff; stroke-width: 0.3; stroke-linejoin: miter"/>
   </g>
   <g id="patch_31">
    <path d="M 118.913678 118.107938 
L 122.435568 118.107938 
L 122.435568 109.299028 
L 118.913678 109.299028 
z
" clip-path="url(#p26180a65f1)" style="fill: #0d6efd; stroke: #ffffff; stroke-width: 0.3; stroke-linejoin: miter"/>
   </g>
   <g id="patch_32">
    <path d="M 122.435568 118.107938 
L 125.957459 118.107938 
L 125.957459 105.892917 
L 122.435568 105.892917 
z
" clip-path="url(#p26180a65f1)" style="fill: #0d6efd; stroke: #ffffff; stroke-width: 0.3; stroke-linejoin: miter"/>
   </g>
   <g id="patch_33">
    <path d="M 125.957459 118.107938 
L 129.47935 118.107938 
L 129.47935 110.987403 
L 125.957459 110.987403 
z
" clip-path="url(#p26180a65f1)" style="fill: #0d6efd; stroke: #ffffff; stroke-width: 0.3; stroke-linejoin: miter"/>
   </g>
   <g id="patch_34">
    <path d="M 129.47935 118.107938 
L 133.001241 118.107938 
L 133.001241 105.584605 
L 129.47935 105.584605 
z
" clip-path="url(#p26180a65f1)" style="fill: #0d6efd; stroke: #ffffff; stroke-width: 0.3; stroke-linejoin: miter"/>
   </g>
   <g id="patch_35">
    <path d="M 133.001241 118.107938 
L 136.523131 118.107938 
L 136.523131 104.057727 
L 133.001241 104.057727 
z
" clip-path="url(#p26180a65f1)" style="fill: #0d6efd; stroke: #ffffff; stroke-width: 0.3; stroke-linejoin: miter"/>
   </g>
   <g id="patch_36">
    <path d="M 136.523131 118.107938 
L 140.045022 118.107938 
L 140.045022 98.08235 
L 136.523131 98.08235 
z
" clip-path="url(#p26180a65f1)" style="fill: #0d6efd; stroke: #ffffff; stroke-width: 0.3; stroke-linejoin: miter"/>
   </g>
   <g id="patch_37">
    <path d="M 140.045022 118.107938 
L 143.566913 118.107938 
L 143.566913 102.398716 
L 140.045022 102.398716 
z
" clip-path="url(#p26180a65f1)" style="fill: #0d6efd; stroke: #ffffff; stroke-width: 0.3; stroke-linejoin: miter"/>
   </g>
   <g id="patch_38">
    <path d="M 143.566913 118.107938 
L 147.088803 118.107938 
L 147.088803 78.115487 
L 143.566913 78.115487 
z
" clip-path="url(#p26180a65f1)" style="fill: #0d6efd; stroke: #ffffff; stroke-width: 0.3; stroke-linejoin: miter"/>
   </g>
   <g id="patch_39">
    <path d="M 147.088803 118.107938 
L 150.610694 118.107938 
L 150.610694 15.909902 
L 147.088803 15.909902 
z
" clip-path="url(#p26180a65f1)" style="fill: #0d6efd; stroke: #ffffff; stroke-width: 0.3; stroke-linejoin: miter"/>
   </g>
   <g id="patch_40">
    <path d="M 150.610694 118.107938 
L 154.132585 118.107938 
L 154.132585 52.951368 
L 150.610694 52.951368 
z
" clip-path="url(#p26180a65f1)" style="fill: #0d6efd; stroke: #ffffff; stroke-width: 0.3; stroke-linejoin: miter"/>
   </g>
   <g id="patch_41">
    <path d="M 154.132585 118.107938 
L 157.654476 118.107938 
L 157.654476 97.715312 
L 154.132585 97.715312 
z
" clip-path="url(#p26180a65f1)" style="fill: #0d6efd; stroke: #ffffff; stroke-width: 0.3; stroke-linejoin: miter"/>
   </g>
   <g id="patch_42">
    <path d="M 157.654476 118.107938 
L 161.176366 118.107938 
L 161.176366 103.954956 
L 157.654476 103.954956 
z
" clip-path="url(#p26180a65f1)" style="fill: #0d6efd; stroke: #ffffff; stroke-width: 0.3; stroke-linejoin: miter"/>
   </g>
   <g id="patch_43">
    <path d="M 161.176366 118.107938 
L 164.698257 118.107938 
L 164.698257 109.416481 
L 161.176366 109.416481 
z
" clip-path="url(#p26180a65f1)" style="fill: #0d6efd; stroke: #ffffff; stroke-width: 0.3; stroke-linejoin: miter"/>
   </g>
   <g id="patch_44">
    <path d="M 164.698257 118.107938 
L 168.220148 118.107938 
L 168.220148 116.507653 
L 164.698257 116.507653 
z
" clip-path="url(#p26180a65f1)" style="fill: #0d6efd; stroke: #ffffff; stroke-width: 0.3; stroke-linejoin: miter"/>
   </g>
   <g id="patch_45">
    <path d="M 168.220148 118.107938 
L 171.742038 118.107938 
L 171.742038 110.95804 
L 168.220148 110.95804 
z
" clip-path="url(#p26180a65f1)" style="fill: #0d6efd; stroke: #ffffff; stroke-width: 0.3; stroke-linejoin: miter"/>
   </g>
   <g id="patch_46">
    <path d="M 171.742038 118.107938 
L 175.263929 118.107938 
L 175.263929 108.374093 
L 171.742038 108.374093 
z
" clip-path="url(#p26180a65f1)" style="fill: #0d6efd; stroke: #ffffff; stroke-width: 0.3; stroke-linejoin: miter"/>
   </g>
   <g id="patch_47">
    <path d="M 175.263929 118.107938 
L 178.78582 118.107938 
L 178.78582 118.107938 
L 175.263929 118.107938 
z
" clip-path="url(#p26180a65f1)" style="fill: #0d6efd; stroke: #ffffff; stroke-width: 0.3; stroke-linejoin: miter"/>
   </g>
   <g id="patch_48">
    <path d="M 178.78582 118.107938 
L 182.30771 118.107938 
L 182.30771 115.303769 
L 178.78582 115.303769 
z
" clip-path="url(#p26180a65f1)" style="fill: #0d6efd; stroke: #ffffff; stroke-width: 0.3; stroke-linejoin: miter"/>
   </g>
   <g id="patch_49">
    <path d="M 182.30771 118.107938 
L 185.829601 118.107938 
L 185.829601 118.107938 
L 182.30771 118.107938 
z
" clip-path="url(#p26180a65f1)" style="fill: #0d6efd; stroke: #ffffff; stroke-width: 0.3; stroke-linejoin: miter"/>
   </g>
   <g id="patch_50">
    <path d="M 185.829601 118.107938 
L 189.351492 118.107938 
L 189.351492 118.107938 
L 185.829601 118.107938 
z
" clip-path="url(#p26180a65f1)" style="fill: #0d6efd; stroke: #ffffff; stroke-width: 0.3; stroke-linejoin: miter"/>
   </g>
   <g id="patch_51">
    <path d="M 189.351492 118.107938 
L 192.873383 118.107938 
L 192.873383 115.949755 
L 189.351492 115.949755 
z
" clip-path="url(#p26180a65f1)" style="fill: #0d6efd; stroke: #ffffff; stroke-width: 0.3; stroke-linejoin: miter"/>
   </g>
   <g id="patch_52">
    <path d="M 192.873383 118.107938 
L 196.395273 118.107938 
L 196.395273 116.18466 
L 192.873383 116.18466 
z
" clip-path="url(#p26180a65f1)" style="fill: #0d6efd; stroke: #ffffff; stroke-width: 0.3; stroke-linejoin: miter"/>
   </g>
   <g id="patch_53">
    <path d="M 11.496011 118.107938 
L 11.496011 10.8 
" style="fill: none"/>
   </g>
   <g id="patch_54">
    <path d="M 205.2 118.107938 
L 205.2 10.8 
" style="fill: none"/>
   </g>
   <g id="patch_55">
    <path d="M 11.496011 118.107938 
L 205.2 118.107938 
" style="fill: none"/>
   </g>
   <g id="patch_56">
    <path d="M 11.496011 10.8 
L 205.2 10.8 
" style="fill: none"/>
   </g>
  </g>
 </g>
 <defs>
  <clipPath id="p26180a65f1">
   <rect x="11.496011" y="10.8" width="193.703989" height="107.307938"/>
  </clipPath>
 </defs>
</svg>
