<?xml version="1.0" encoding="utf-8" standalone="no"?>
<!DOCTYPE svg PUBLIC "-//W3C//DTD SVG 1.1//EN"
  "http://www.w3.org/Graphics/SVG/1.1/DTD/svg11.dtd">
<svg xmlns:xlink="http://www.w3.org/1999/xlink" width="504pt" height="216pt" viewBox="0 0 504 216" xmlns="http://www.w3.org/2000/svg" version="1.1">
 <metadata>
  <rdf:RDF xmlns:dc="http://purl.org/dc/elements/1.1/" xmlns:cc="http://creativecommons.org/ns#" xmlns:rdf="http://www.w3.org/1999/02/22-rdf-syntax-ns#">
   <cc:Work>
    <dc:type rdf:resource="http://purl.org/dc/dcmitype/StillImage"/>
    <dc:date>2025-05-17T19:05:22.825076</dc:date>
    <dc:format>image/svg+xml</dc:format>
    <dc:creator>
     <cc:Agent>
      <dc:title>Matplotlib v3.10.0, https://matplotlib.org/</dc:title>
     </cc:Agent>
    </dc:creator>
   </cc:Work>
  </rdf:RDF>
 </metadata>
 <defs>
  <style type="text/css">*{stroke-linejoin: round; stroke-linecap: butt}</style>
 </defs>
 <g id="figure_1">
  <g id="patch_1">
   <path d="M 0 216 
L 504 216 
L 504 0 
L 0 0 
z
" style="fill: #ffffff"/>
  </g>
  <g id="axes_1">
   <g id="patch_2">
    <path d="M 67.69 178.599179 
L 493.2 178.599179 
L 493.2 10.8 
L 67.69 10.8 
z
" style="fill: #ffffff"/>
   </g>
   <g id="matplotlib.axis_1">
    <g id="xtick_1">
     <g id="text_1">
      <!-- 0 -->
      <g style="fill: #262626" transform="translate(86.733053 198.971052) rotate(-45) scale(0.1 -0.1)">
       <defs>
        <path id="DejaVuSans-30" d="M 2034 4250 
Q 1547 4250 1301 3770 
Q 1056 3291 1056 2328 
Q 1056 1369 1301 889 
Q 1547 409 2034 409 
Q 2525 409 2770 889 
Q 3016 1369 3016 2328 
Q 3016 3291 2770 3770 
Q 2525 4250 2034 4250 
z
M 2034 4750 
Q 2819 4750 3233 4129 
Q 3647 3509 3647 2328 
Q 3647 1150 3233 529 
Q 2819 -91 2034 -91 
Q 1250 -91 836 529 
Q 422 1150 422 2328 
Q 422 3509 836 4129 
Q 1250 4750 2034 4750 
z
" transform="scale(0.015625)"/>
       </defs>
       <use xlink:href="#DejaVuSans-30"/>
      </g>
     </g>
    </g>
    <g id="xtick_2">
     <g id="text_2">
      <!-- 10 -->
      <g style="fill: #262626" transform="translate(161.849024 203.470019) rotate(-45) scale(0.1 -0.1)">
       <defs>
        <path id="DejaVuSans-31" d="M 794 531 
L 1825 531 
L 1825 4091 
L 703 3866 
L 703 4441 
L 1819 4666 
L 2450 4666 
L 2450 531 
L 3481 531 
L 3481 0 
L 794 0 
L 794 531 
z
" transform="scale(0.015625)"/>
       </defs>
       <use xlink:href="#DejaVuSans-31"/>
       <use xlink:href="#DejaVuSans-30" transform="translate(63.623047 0)"/>
      </g>
     </g>
    </g>
    <g id="xtick_3">
     <g id="text_3">
      <!-- 20 -->
      <g style="fill: #262626" transform="translate(239.214479 203.470019) rotate(-45) scale(0.1 -0.1)">
       <defs>
        <path id="DejaVuSans-32" d="M 1228 531 
L 3431 531 
L 3431 0 
L 469 0 
L 469 531 
Q 828 903 1448 1529 
Q 2069 2156 2228 2338 
Q 2531 2678 2651 2914 
Q 2772 3150 2772 3378 
Q 2772 3750 2511 3984 
Q 2250 4219 1831 4219 
Q 1534 4219 1204 4116 
Q 875 4013 500 3803 
L 500 4441 
Q 881 4594 1212 4672 
Q 1544 4750 1819 4750 
Q 2544 4750 2975 4387 
Q 3406 4025 3406 3419 
Q 3406 3131 3298 2873 
Q 3191 2616 2906 2266 
Q 2828 2175 2409 1742 
Q 1991 1309 1228 531 
z
" transform="scale(0.015625)"/>
       </defs>
       <use xlink:href="#DejaVuSans-32"/>
       <use xlink:href="#DejaVuSans-30" transform="translate(63.623047 0)"/>
      </g>
     </g>
    </g>
    <g id="xtick_4">
     <g id="text_4">
      <!-- 30 -->
      <g style="fill: #262626" transform="translate(316.579933 203.470019) rotate(-45) scale(0.1 -0.1)">
       <defs>
        <path id="DejaVuSans-33" d="M 2597 2516 
Q 3050 2419 3304 2112 
Q 3559 1806 3559 1356 
Q 3559 666 3084 287 
Q 2609 -91 1734 -91 
Q 1441 -91 1130 -33 
Q 819 25 488 141 
L 488 750 
Q 750 597 1062 519 
Q 1375 441 1716 441 
Q 2309 441 2620 675 
Q 2931 909 2931 1356 
Q 2931 1769 2642 2001 
Q 2353 2234 1838 2234 
L 1294 2234 
L 1294 2753 
L 1863 2753 
Q 2328 2753 2575 2939 
Q 2822 3125 2822 3475 
Q 2822 3834 2567 4026 
Q 2313 4219 1838 4219 
Q 1578 4219 1281 4162 
Q 984 4106 628 3988 
L 628 4550 
Q 988 4650 1302 4700 
Q 1616 4750 1894 4750 
Q 2613 4750 3031 4423 
Q 3450 4097 3450 3541 
Q 3450 3153 3228 2886 
Q 3006 2619 2597 2516 
z
" transform="scale(0.015625)"/>
       </defs>
       <use xlink:href="#DejaVuSans-33"/>
       <use xlink:href="#DejaVuSans-30" transform="translate(63.623047 0)"/>
      </g>
     </g>
    </g>
    <g id="xtick_5">
     <g id="text_5">
      <!-- 40 -->
      <g style="fill: #262626" transform="translate(393.945388 203.470019) rotate(-45) scale(0.1 -0.1)">
       <defs>
        <path id="DejaVuSans-34" d="M 2419 4116 
L 825 1625 
L 2419 1625 
L 2419 4116 
z
M 2253 4666 
L 3047 4666 
L 3047 1625 
L 3713 1625 
L 3713 1100 
L 3047 1100 
L 3047 0 
L 2419 0 
L 2419 1100 
L 313 1100 
L 313 1709 
L 2253 4666 
z
" transform="scale(0.015625)"/>
       </defs>
       <use xlink:href="#DejaVuSans-34"/>
       <use xlink:href="#DejaVuSans-30" transform="translate(63.623047 0)"/>
      </g>
     </g>
    </g>
    <g id="xtick_6">
     <g id="text_6">
      <!-- 50 -->
      <g style="fill: #262626" transform="translate(471.310842 203.470019) rotate(-45) scale(0.1 -0.1)">
       <defs>
        <path id="DejaVuSans-35" d="M 691 4666 
L 3169 4666 
L 3169 4134 
L 1269 4134 
L 1269 2991 
Q 1406 3038 1543 3061 
Q 1681 3084 1819 3084 
Q 2600 3084 3056 2656 
Q 3513 2228 3513 1497 
Q 3513 744 3044 326 
Q 2575 -91 1722 -91 
Q 1428 -91 1123 -41 
Q 819 9 494 109 
L 494 744 
Q 775 591 1075 516 
Q 1375 441 1709 441 
Q 2250 441 2565 725 
Q 2881 1009 2881 1497 
Q 2881 1984 2565 2268 
Q 2250 2553 1709 2553 
Q 1456 2553 1204 2497 
Q 953 2441 691 2322 
L 691 4666 
z
" transform="scale(0.015625)"/>
       </defs>
       <use xlink:href="#DejaVuSans-35"/>
       <use xlink:href="#DejaVuSans-30" transform="translate(63.623047 0)"/>
      </g>
     </g>
    </g>
   </g>
   <g id="matplotlib.axis_2">
    <g id="ytick_1">
     <g id="text_7">
      <!-- 0 -->
      <g style="fill: #262626" transform="translate(50.8275 182.398397) scale(0.1 -0.1)">
       <use xlink:href="#DejaVuSans-30"/>
      </g>
     </g>
    </g>
    <g id="ytick_2">
     <g id="text_8">
      <!-- 10000 -->
      <g style="fill: #262626" transform="translate(25.3775 156.479403) scale(0.1 -0.1)">
       <use xlink:href="#DejaVuSans-31"/>
       <use xlink:href="#DejaVuSans-30" transform="translate(63.623047 0)"/>
       <use xlink:href="#DejaVuSans-30" transform="translate(127.246094 0)"/>
       <use xlink:href="#DejaVuSans-30" transform="translate(190.869141 0)"/>
       <use xlink:href="#DejaVuSans-30" transform="translate(254.492188 0)"/>
      </g>
     </g>
    </g>
    <g id="ytick_3">
     <g id="text_9">
      <!-- 20000 -->
      <g style="fill: #262626" transform="translate(25.3775 130.560409) scale(0.1 -0.1)">
       <use xlink:href="#DejaVuSans-32"/>
       <use xlink:href="#DejaVuSans-30" transform="translate(63.623047 0)"/>
       <use xlink:href="#DejaVuSans-30" transform="translate(127.246094 0)"/>
       <use xlink:href="#DejaVuSans-30" transform="translate(190.869141 0)"/>
       <use xlink:href="#DejaVuSans-30" transform="translate(254.492188 0)"/>
      </g>
     </g>
    </g>
    <g id="ytick_4">
     <g id="text_10">
      <!-- 30000 -->
      <g style="fill: #262626" transform="translate(25.3775 104.641415) scale(0.1 -0.1)">
       <use xlink:href="#DejaVuSans-33"/>
       <use xlink:href="#DejaVuSans-30" transform="translate(63.623047 0)"/>
       <use xlink:href="#DejaVuSans-30" transform="translate(127.246094 0)"/>
       <use xlink:href="#DejaVuSans-30" transform="translate(190.869141 0)"/>
       <use xlink:href="#DejaVuSans-30" transform="translate(254.492188 0)"/>
      </g>
     </g>
    </g>
    <g id="ytick_5">
     <g id="text_11">
      <!-- 40000 -->
      <g style="fill: #262626" transform="translate(25.3775 78.722421) scale(0.1 -0.1)">
       <use xlink:href="#DejaVuSans-34"/>
       <use xlink:href="#DejaVuSans-30" transform="translate(63.623047 0)"/>
       <use xlink:href="#DejaVuSans-30" transform="translate(127.246094 0)"/>
       <use xlink:href="#DejaVuSans-30" transform="translate(190.869141 0)"/>
       <use xlink:href="#DejaVuSans-30" transform="translate(254.492188 0)"/>
      </g>
     </g>
    </g>
    <g id="ytick_6">
     <g id="text_12">
      <!-- 50000 -->
      <g style="fill: #262626" transform="translate(25.3775 52.803427) scale(0.1 -0.1)">
       <use xlink:href="#DejaVuSans-35"/>
       <use xlink:href="#DejaVuSans-30" transform="translate(63.623047 0)"/>
       <use xlink:href="#DejaVuSans-30" transform="translate(127.246094 0)"/>
       <use xlink:href="#DejaVuSans-30" transform="translate(190.869141 0)"/>
       <use xlink:href="#DejaVuSans-30" transform="translate(254.492188 0)"/>
      </g>
     </g>
    </g>
    <g id="ytick_7">
     <g id="text_13">
      <!-- 60000 -->
      <g style="fill: #262626" transform="translate(25.3775 26.884433) scale(0.1 -0.1)">
       <defs>
        <path id="DejaVuSans-36" d="M 2113 2584 
Q 1688 2584 1439 2293 
Q 1191 2003 1191 1497 
Q 1191 994 1439 701 
Q 1688 409 2113 409 
Q 2538 409 2786 701 
Q 3034 994 3034 1497 
Q 3034 2003 2786 2293 
Q 2538 2584 2113 2584 
z
M 3366 4563 
L 3366 3988 
Q 3128 4100 2886 4159 
Q 2644 4219 2406 4219 
Q 1781 4219 1451 3797 
Q 1122 3375 1075 2522 
Q 1259 2794 1537 2939 
Q 1816 3084 2150 3084 
Q 2853 3084 3261 2657 
Q 3669 2231 3669 1497 
Q 3669 778 3244 343 
Q 2819 -91 2113 -91 
Q 1303 -91 875 529 
Q 447 1150 447 2328 
Q 447 3434 972 4092 
Q 1497 4750 2381 4750 
Q 2619 4750 2861 4703 
Q 3103 4656 3366 4563 
z
" transform="scale(0.015625)"/>
       </defs>
       <use xlink:href="#DejaVuSans-36"/>
       <use xlink:href="#DejaVuSans-30" transform="translate(63.623047 0)"/>
       <use xlink:href="#DejaVuSans-30" transform="translate(127.246094 0)"/>
       <use xlink:href="#DejaVuSans-30" transform="translate(190.869141 0)"/>
       <use xlink:href="#DejaVuSans-30" transform="translate(254.492188 0)"/>
      </g>
     </g>
    </g>
    <g id="text_14">
     <!-- Frequency -->
     <g style="fill: #262626" transform="translate(19.089844 123.112246) rotate(-90) scale(0.11 -0.11)">
      <defs>
       <path id="DejaVuSans-46" d="M 628 4666 
L 3309 4666 
L 3309 4134 
L 1259 4134 
L 1259 2759 
L 3109 2759 
L 3109 2228 
L 1259 2228 
L 1259 0 
L 628 0 
L 628 4666 
z
" transform="scale(0.015625)"/>
       <path id="DejaVuSans-72" d="M 2631 2963 
Q 2534 3019 2420 3045 
Q 2306 3072 2169 3072 
Q 1681 3072 1420 2755 
Q 1159 2438 1159 1844 
L 1159 0 
L 581 0 
L 581 3500 
L 1159 3500 
L 1159 2956 
Q 1341 3275 1631 3429 
Q 1922 3584 2338 3584 
Q 2397 3584 2469 3576 
Q 2541 3569 2628 3553 
L 2631 2963 
z
" transform="scale(0.015625)"/>
       <path id="DejaVuSans-65" d="M 3597 1894 
L 3597 1613 
L 953 1613 
Q 991 1019 1311 708 
Q 1631 397 2203 397 
Q 2534 397 2845 478 
Q 3156 559 3463 722 
L 3463 178 
Q 3153 47 2828 -22 
Q 2503 -91 2169 -91 
Q 1331 -91 842 396 
Q 353 884 353 1716 
Q 353 2575 817 3079 
Q 1281 3584 2069 3584 
Q 2775 3584 3186 3129 
Q 3597 2675 3597 1894 
z
M 3022 2063 
Q 3016 2534 2758 2815 
Q 2500 3097 2075 3097 
Q 1594 3097 1305 2825 
Q 1016 2553 972 2059 
L 3022 2063 
z
" transform="scale(0.015625)"/>
       <path id="DejaVuSans-71" d="M 947 1747 
Q 947 1113 1208 752 
Q 1469 391 1925 391 
Q 2381 391 2643 752 
Q 2906 1113 2906 1747 
Q 2906 2381 2643 2742 
Q 2381 3103 1925 3103 
Q 1469 3103 1208 2742 
Q 947 2381 947 1747 
z
M 2906 525 
Q 2725 213 2448 61 
Q 2172 -91 1784 -91 
Q 1150 -91 751 415 
Q 353 922 353 1747 
Q 353 2572 751 3078 
Q 1150 3584 1784 3584 
Q 2172 3584 2448 3432 
Q 2725 3281 2906 2969 
L 2906 3500 
L 3481 3500 
L 3481 -1331 
L 2906 -1331 
L 2906 525 
z
" transform="scale(0.015625)"/>
       <path id="DejaVuSans-75" d="M 544 1381 
L 544 3500 
L 1119 3500 
L 1119 1403 
Q 1119 906 1312 657 
Q 1506 409 1894 409 
Q 2359 409 2629 706 
Q 2900 1003 2900 1516 
L 2900 3500 
L 3475 3500 
L 3475 0 
L 2900 0 
L 2900 538 
Q 2691 219 2414 64 
Q 2138 -91 1772 -91 
Q 1169 -91 856 284 
Q 544 659 544 1381 
z
M 1991 3584 
L 1991 3584 
z
" transform="scale(0.015625)"/>
       <path id="DejaVuSans-6e" d="M 3513 2113 
L 3513 0 
L 2938 0 
L 2938 2094 
Q 2938 2591 2744 2837 
Q 2550 3084 2163 3084 
Q 1697 3084 1428 2787 
Q 1159 2491 1159 1978 
L 1159 0 
L 581 0 
L 581 3500 
L 1159 3500 
L 1159 2956 
Q 1366 3272 1645 3428 
Q 1925 3584 2291 3584 
Q 2894 3584 3203 3211 
Q 3513 2838 3513 2113 
z
" transform="scale(0.015625)"/>
       <path id="DejaVuSans-63" d="M 3122 3366 
L 3122 2828 
Q 2878 2963 2633 3030 
Q 2388 3097 2138 3097 
Q 1578 3097 1268 2742 
Q 959 2388 959 1747 
Q 959 1106 1268 751 
Q 1578 397 2138 397 
Q 2388 397 2633 464 
Q 2878 531 3122 666 
L 3122 134 
Q 2881 22 2623 -34 
Q 2366 -91 2075 -91 
Q 1284 -91 818 406 
Q 353 903 353 1747 
Q 353 2603 823 3093 
Q 1294 3584 2113 3584 
Q 2378 3584 2631 3529 
Q 2884 3475 3122 3366 
z
" transform="scale(0.015625)"/>
       <path id="DejaVuSans-79" d="M 2059 -325 
Q 1816 -950 1584 -1140 
Q 1353 -1331 966 -1331 
L 506 -1331 
L 506 -850 
L 844 -850 
Q 1081 -850 1212 -737 
Q 1344 -625 1503 -206 
L 1606 56 
L 191 3500 
L 800 3500 
L 1894 763 
L 2988 3500 
L 3597 3500 
L 2059 -325 
z
" transform="scale(0.015625)"/>
      </defs>
      <use xlink:href="#DejaVuSans-46"/>
      <use xlink:href="#DejaVuSans-72" transform="translate(50.269531 0)"/>
      <use xlink:href="#DejaVuSans-65" transform="translate(89.132812 0)"/>
      <use xlink:href="#DejaVuSans-71" transform="translate(150.65625 0)"/>
      <use xlink:href="#DejaVuSans-75" transform="translate(214.132812 0)"/>
      <use xlink:href="#DejaVuSans-65" transform="translate(277.511719 0)"/>
      <use xlink:href="#DejaVuSans-6e" transform="translate(339.035156 0)"/>
      <use xlink:href="#DejaVuSans-63" transform="translate(402.414062 0)"/>
      <use xlink:href="#DejaVuSans-79" transform="translate(457.394531 0)"/>
     </g>
    </g>
   </g>
   <g id="patch_3">
    <path d="M 87.031364 178.599179 
L 94.767909 178.599179 
L 94.767909 18.790437 
L 87.031364 18.790437 
z
" clip-path="url(#p6825b724e2)" style="fill: #0d6efd; stroke: #ffffff; stroke-width: 0.3; stroke-linejoin: miter"/>
   </g>
   <g id="patch_4">
    <path d="M 94.767909 178.599179 
L 102.504455 178.599179 
L 102.504455 141.532425 
L 94.767909 141.532425 
z
" clip-path="url(#p6825b724e2)" style="fill: #0d6efd; stroke: #ffffff; stroke-width: 0.3; stroke-linejoin: miter"/>
   </g>
   <g id="patch_5">
    <path d="M 102.504455 178.599179 
L 110.241 178.599179 
L 110.241 111.038729 
L 102.504455 111.038729 
z
" clip-path="url(#p6825b724e2)" style="fill: #0d6efd; stroke: #ffffff; stroke-width: 0.3; stroke-linejoin: miter"/>
   </g>
   <g id="patch_6">
    <path d="M 110.241 178.599179 
L 117.977545 178.599179 
L 117.977545 119.24209 
L 110.241 119.24209 
z
" clip-path="url(#p6825b724e2)" style="fill: #0d6efd; stroke: #ffffff; stroke-width: 0.3; stroke-linejoin: miter"/>
   </g>
   <g id="patch_7">
    <path d="M 117.977545 178.599179 
L 125.714091 178.599179 
L 125.714091 139.046794 
L 117.977545 139.046794 
z
" clip-path="url(#p6825b724e2)" style="fill: #0d6efd; stroke: #ffffff; stroke-width: 0.3; stroke-linejoin: miter"/>
   </g>
   <g id="patch_8">
    <path d="M 125.714091 178.599179 
L 133.450636 178.599179 
L 133.450636 132.388204 
L 125.714091 132.388204 
z
" clip-path="url(#p6825b724e2)" style="fill: #0d6efd; stroke: #ffffff; stroke-width: 0.3; stroke-linejoin: miter"/>
   </g>
   <g id="patch_9">
    <path d="M 133.450636 178.599179 
L 141.187182 178.599179 
L 141.187182 114.112721 
L 133.450636 114.112721 
z
" clip-path="url(#p6825b724e2)" style="fill: #0d6efd; stroke: #ffffff; stroke-width: 0.3; stroke-linejoin: miter"/>
   </g>
   <g id="patch_10">
    <path d="M 141.187182 178.599179 
L 148.923727 178.599179 
L 148.923727 125.527446 
L 141.187182 125.527446 
z
" clip-path="url(#p6825b724e2)" style="fill: #0d6efd; stroke: #ffffff; stroke-width: 0.3; stroke-linejoin: miter"/>
   </g>
   <g id="patch_11">
    <path d="M 148.923727 178.599179 
L 156.660273 178.599179 
L 156.660273 124.988331 
L 148.923727 124.988331 
z
" clip-path="url(#p6825b724e2)" style="fill: #0d6efd; stroke: #ffffff; stroke-width: 0.3; stroke-linejoin: miter"/>
   </g>
   <g id="patch_12">
    <path d="M 156.660273 178.599179 
L 164.396818 178.599179 
L 164.396818 128.137489 
L 156.660273 128.137489 
z
" clip-path="url(#p6825b724e2)" style="fill: #0d6efd; stroke: #ffffff; stroke-width: 0.3; stroke-linejoin: miter"/>
   </g>
   <g id="patch_13">
    <path d="M 164.396818 178.599179 
L 172.133364 178.599179 
L 172.133364 145.101471 
L 164.396818 145.101471 
z
" clip-path="url(#p6825b724e2)" style="fill: #0d6efd; stroke: #ffffff; stroke-width: 0.3; stroke-linejoin: miter"/>
   </g>
   <g id="patch_14">
    <path d="M 172.133364 178.599179 
L 179.869909 178.599179 
L 179.869909 151.92335 
L 172.133364 151.92335 
z
" clip-path="url(#p6825b724e2)" style="fill: #0d6efd; stroke: #ffffff; stroke-width: 0.3; stroke-linejoin: miter"/>
   </g>
   <g id="patch_15">
    <path d="M 179.869909 178.599179 
L 187.606455 178.599179 
L 187.606455 154.691498 
L 179.869909 154.691498 
z
" clip-path="url(#p6825b724e2)" style="fill: #0d6efd; stroke: #ffffff; stroke-width: 0.3; stroke-linejoin: miter"/>
   </g>
   <g id="patch_16">
    <path d="M 187.606455 178.599179 
L 195.343 178.599179 
L 195.343 155.139897 
L 187.606455 155.139897 
z
" clip-path="url(#p6825b724e2)" style="fill: #0d6efd; stroke: #ffffff; stroke-width: 0.3; stroke-linejoin: miter"/>
   </g>
   <g id="patch_17">
    <path d="M 195.343 178.599179 
L 203.079545 178.599179 
L 203.079545 152.356197 
L 195.343 152.356197 
z
" clip-path="url(#p6825b724e2)" style="fill: #0d6efd; stroke: #ffffff; stroke-width: 0.3; stroke-linejoin: miter"/>
   </g>
   <g id="patch_18">
    <path d="M 203.079545 178.599179 
L 210.816091 178.599179 
L 210.816091 129.521563 
L 203.079545 129.521563 
z
" clip-path="url(#p6825b724e2)" style="fill: #0d6efd; stroke: #ffffff; stroke-width: 0.3; stroke-linejoin: miter"/>
   </g>
   <g id="patch_19">
    <path d="M 210.816091 178.599179 
L 218.552636 178.599179 
L 218.552636 123.054774 
L 210.816091 123.054774 
z
" clip-path="url(#p6825b724e2)" style="fill: #0d6efd; stroke: #ffffff; stroke-width: 0.3; stroke-linejoin: miter"/>
   </g>
   <g id="patch_20">
    <path d="M 218.552636 178.599179 
L 226.289182 178.599179 
L 226.289182 114.667388 
L 218.552636 114.667388 
z
" clip-path="url(#p6825b724e2)" style="fill: #0d6efd; stroke: #ffffff; stroke-width: 0.3; stroke-linejoin: miter"/>
   </g>
   <g id="patch_21">
    <path d="M 226.289182 178.599179 
L 234.025727 178.599179 
L 234.025727 146.866554 
L 226.289182 146.866554 
z
" clip-path="url(#p6825b724e2)" style="fill: #0d6efd; stroke: #ffffff; stroke-width: 0.3; stroke-linejoin: miter"/>
   </g>
   <g id="patch_22">
    <path d="M 234.025727 178.599179 
L 241.762273 178.599179 
L 241.762273 161.249004 
L 234.025727 161.249004 
z
" clip-path="url(#p6825b724e2)" style="fill: #0d6efd; stroke: #ffffff; stroke-width: 0.3; stroke-linejoin: miter"/>
   </g>
   <g id="patch_23">
    <path d="M 241.762273 178.599179 
L 249.498818 178.599179 
L 249.498818 115.170216 
L 241.762273 115.170216 
z
" clip-path="url(#p6825b724e2)" style="fill: #0d6efd; stroke: #ffffff; stroke-width: 0.3; stroke-linejoin: miter"/>
   </g>
   <g id="patch_24">
    <path d="M 249.498818 178.599179 
L 257.235364 178.599179 
L 257.235364 119.88229 
L 249.498818 119.88229 
z
" clip-path="url(#p6825b724e2)" style="fill: #0d6efd; stroke: #ffffff; stroke-width: 0.3; stroke-linejoin: miter"/>
   </g>
   <g id="patch_25">
    <path d="M 257.235364 178.599179 
L 264.971909 178.599179 
L 264.971909 155.32133 
L 257.235364 155.32133 
z
" clip-path="url(#p6825b724e2)" style="fill: #0d6efd; stroke: #ffffff; stroke-width: 0.3; stroke-linejoin: miter"/>
   </g>
   <g id="patch_26">
    <path d="M 264.971909 178.599179 
L 272.708455 178.599179 
L 272.708455 154.217181 
L 264.971909 154.217181 
z
" clip-path="url(#p6825b724e2)" style="fill: #0d6efd; stroke: #ffffff; stroke-width: 0.3; stroke-linejoin: miter"/>
   </g>
   <g id="patch_27">
    <path d="M 272.708455 178.599179 
L 280.445 178.599179 
L 280.445 102.267741 
L 272.708455 102.267741 
z
" clip-path="url(#p6825b724e2)" style="fill: #0d6efd; stroke: #ffffff; stroke-width: 0.3; stroke-linejoin: miter"/>
   </g>
   <g id="patch_28">
    <path d="M 280.445 178.599179 
L 288.181545 178.599179 
L 288.181545 149.575089 
L 280.445 149.575089 
z
" clip-path="url(#p6825b724e2)" style="fill: #0d6efd; stroke: #ffffff; stroke-width: 0.3; stroke-linejoin: miter"/>
   </g>
   <g id="patch_29">
    <path d="M 288.181545 178.599179 
L 295.918091 178.599179 
L 295.918091 145.443601 
L 288.181545 145.443601 
z
" clip-path="url(#p6825b724e2)" style="fill: #0d6efd; stroke: #ffffff; stroke-width: 0.3; stroke-linejoin: miter"/>
   </g>
   <g id="patch_30">
    <path d="M 295.918091 178.599179 
L 303.654636 178.599179 
L 303.654636 104.429385 
L 295.918091 104.429385 
z
" clip-path="url(#p6825b724e2)" style="fill: #0d6efd; stroke: #ffffff; stroke-width: 0.3; stroke-linejoin: miter"/>
   </g>
   <g id="patch_31">
    <path d="M 303.654636 178.599179 
L 311.391182 178.599179 
L 311.391182 90.101365 
L 303.654636 90.101365 
z
" clip-path="url(#p6825b724e2)" style="fill: #0d6efd; stroke: #ffffff; stroke-width: 0.3; stroke-linejoin: miter"/>
   </g>
   <g id="patch_32">
    <path d="M 311.391182 178.599179 
L 319.127727 178.599179 
L 319.127727 133.479394 
L 311.391182 133.479394 
z
" clip-path="url(#p6825b724e2)" style="fill: #0d6efd; stroke: #ffffff; stroke-width: 0.3; stroke-linejoin: miter"/>
   </g>
   <g id="patch_33">
    <path d="M 319.127727 178.599179 
L 326.864273 178.599179 
L 326.864273 152.060721 
L 319.127727 152.060721 
z
" clip-path="url(#p6825b724e2)" style="fill: #0d6efd; stroke: #ffffff; stroke-width: 0.3; stroke-linejoin: miter"/>
   </g>
   <g id="patch_34">
    <path d="M 326.864273 178.599179 
L 334.600818 178.599179 
L 334.600818 152.192907 
L 326.864273 152.192907 
z
" clip-path="url(#p6825b724e2)" style="fill: #0d6efd; stroke: #ffffff; stroke-width: 0.3; stroke-linejoin: miter"/>
   </g>
   <g id="patch_35">
    <path d="M 334.600818 178.599179 
L 342.337364 178.599179 
L 342.337364 146.817308 
L 334.600818 146.817308 
z
" clip-path="url(#p6825b724e2)" style="fill: #0d6efd; stroke: #ffffff; stroke-width: 0.3; stroke-linejoin: miter"/>
   </g>
   <g id="patch_36">
    <path d="M 342.337364 178.599179 
L 350.073909 178.599179 
L 350.073909 159.481329 
L 342.337364 159.481329 
z
" clip-path="url(#p6825b724e2)" style="fill: #0d6efd; stroke: #ffffff; stroke-width: 0.3; stroke-linejoin: miter"/>
   </g>
   <g id="patch_37">
    <path d="M 350.073909 178.599179 
L 357.810455 178.599179 
L 357.810455 125.003883 
L 350.073909 125.003883 
z
" clip-path="url(#p6825b724e2)" style="fill: #0d6efd; stroke: #ffffff; stroke-width: 0.3; stroke-linejoin: miter"/>
   </g>
   <g id="patch_38">
    <path d="M 357.810455 178.599179 
L 365.547 178.599179 
L 365.547 153.240035 
L 357.810455 153.240035 
z
" clip-path="url(#p6825b724e2)" style="fill: #0d6efd; stroke: #ffffff; stroke-width: 0.3; stroke-linejoin: miter"/>
   </g>
   <g id="patch_39">
    <path d="M 365.547 178.599179 
L 373.283545 178.599179 
L 373.283545 157.703286 
L 365.547 157.703286 
z
" clip-path="url(#p6825b724e2)" style="fill: #0d6efd; stroke: #ffffff; stroke-width: 0.3; stroke-linejoin: miter"/>
   </g>
   <g id="patch_40">
    <path d="M 373.283545 178.599179 
L 381.020091 178.599179 
L 381.020091 125.825515 
L 373.283545 125.825515 
z
" clip-path="url(#p6825b724e2)" style="fill: #0d6efd; stroke: #ffffff; stroke-width: 0.3; stroke-linejoin: miter"/>
   </g>
   <g id="patch_41">
    <path d="M 381.020091 178.599179 
L 388.756636 178.599179 
L 388.756636 158.51455 
L 381.020091 158.51455 
z
" clip-path="url(#p6825b724e2)" style="fill: #0d6efd; stroke: #ffffff; stroke-width: 0.3; stroke-linejoin: miter"/>
   </g>
   <g id="patch_42">
    <path d="M 388.756636 178.599179 
L 396.493182 178.599179 
L 396.493182 160.287409 
L 388.756636 160.287409 
z
" clip-path="url(#p6825b724e2)" style="fill: #0d6efd; stroke: #ffffff; stroke-width: 0.3; stroke-linejoin: miter"/>
   </g>
   <g id="patch_43">
    <path d="M 396.493182 178.599179 
L 404.229727 178.599179 
L 404.229727 158.10503 
L 396.493182 158.10503 
z
" clip-path="url(#p6825b724e2)" style="fill: #0d6efd; stroke: #ffffff; stroke-width: 0.3; stroke-linejoin: miter"/>
   </g>
   <g id="patch_44">
    <path d="M 404.229727 178.599179 
L 411.966273 178.599179 
L 411.966273 158.014314 
L 404.229727 158.014314 
z
" clip-path="url(#p6825b724e2)" style="fill: #0d6efd; stroke: #ffffff; stroke-width: 0.3; stroke-linejoin: miter"/>
   </g>
   <g id="patch_45">
    <path d="M 411.966273 178.599179 
L 419.702818 178.599179 
L 419.702818 98.965661 
L 411.966273 98.965661 
z
" clip-path="url(#p6825b724e2)" style="fill: #0d6efd; stroke: #ffffff; stroke-width: 0.3; stroke-linejoin: miter"/>
   </g>
   <g id="patch_46">
    <path d="M 419.702818 178.599179 
L 427.439364 178.599179 
L 427.439364 154.44786 
L 419.702818 154.44786 
z
" clip-path="url(#p6825b724e2)" style="fill: #0d6efd; stroke: #ffffff; stroke-width: 0.3; stroke-linejoin: miter"/>
   </g>
   <g id="patch_47">
    <path d="M 427.439364 178.599179 
L 435.175909 178.599179 
L 435.175909 151.366092 
L 427.439364 151.366092 
z
" clip-path="url(#p6825b724e2)" style="fill: #0d6efd; stroke: #ffffff; stroke-width: 0.3; stroke-linejoin: miter"/>
   </g>
   <g id="patch_48">
    <path d="M 435.175909 178.599179 
L 442.912455 178.599179 
L 442.912455 158.519734 
L 435.175909 158.519734 
z
" clip-path="url(#p6825b724e2)" style="fill: #0d6efd; stroke: #ffffff; stroke-width: 0.3; stroke-linejoin: miter"/>
   </g>
   <g id="patch_49">
    <path d="M 442.912455 178.599179 
L 450.649 178.599179 
L 450.649 151.97778 
L 442.912455 151.97778 
z
" clip-path="url(#p6825b724e2)" style="fill: #0d6efd; stroke: #ffffff; stroke-width: 0.3; stroke-linejoin: miter"/>
   </g>
   <g id="patch_50">
    <path d="M 450.649 178.599179 
L 458.385545 178.599179 
L 458.385545 158.234625 
L 450.649 158.234625 
z
" clip-path="url(#p6825b724e2)" style="fill: #0d6efd; stroke: #ffffff; stroke-width: 0.3; stroke-linejoin: miter"/>
   </g>
   <g id="patch_51">
    <path d="M 458.385545 178.599179 
L 466.122091 178.599179 
L 466.122091 158.698575 
L 458.385545 158.698575 
z
" clip-path="url(#p6825b724e2)" style="fill: #0d6efd; stroke: #ffffff; stroke-width: 0.3; stroke-linejoin: miter"/>
   </g>
   <g id="patch_52">
    <path d="M 466.122091 178.599179 
L 473.858636 178.599179 
L 473.858636 129.892205 
L 466.122091 129.892205 
z
" clip-path="url(#p6825b724e2)" style="fill: #0d6efd; stroke: #ffffff; stroke-width: 0.3; stroke-linejoin: miter"/>
   </g>
   <g id="patch_53">
    <path d="M 67.69 178.599179 
L 67.69 10.8 
" style="fill: none"/>
   </g>
   <g id="patch_54">
    <path d="M 493.2 178.599179 
L 493.2 10.8 
" style="fill: none"/>
   </g>
   <g id="patch_55">
    <path d="M 67.69 178.599179 
L 493.2 178.599179 
" style="fill: none"/>
   </g>
   <g id="patch_56">
    <path d="M 67.69 10.8 
L 493.2 10.8 
" style="fill: none"/>
   </g>
  </g>
 </g>
 <defs>
  <clipPath id="p6825b724e2">
   <rect x="67.69" y="10.8" width="425.51" height="167.799179"/>
  </clipPath>
 </defs>
</svg>
